<mxfile host="app.diagrams.net" modified="2020-10-13T05:02:19.450Z" agent="5.0 (Windows)" etag="oGNx-EBaw5eVPTqdVmSC" version="13.7.9" type="github">
  <diagram id="ZDt5JsgEw7-1mIynawl9" name="Page-1">
    <mxGraphModel dx="599" dy="319" grid="1" gridSize="10" guides="1" tooltips="1" connect="1" arrows="1" fold="1" page="1" pageScale="1" pageWidth="850" pageHeight="1100" math="0" shadow="0">
      <root>
        <mxCell id="0" />
        <mxCell id="1" parent="0" />
        <mxCell id="41tTYhLOXa8K0barruc2-2" value="" style="strokeWidth=1;html=1;shadow=0;dashed=0;shape=mxgraph.android.rrect;rSize=0;strokeColor=#888888;fillColor=#444444;" parent="1" vertex="1">
          <mxGeometry x="350" y="140" width="75" height="50" as="geometry" />
        </mxCell>
        <mxCell id="41tTYhLOXa8K0barruc2-3" value="Data Irigasi" style="strokeColor=inherit;fillColor=inherit;gradientColor=inherit;strokeWidth=1;html=1;shadow=0;dashed=0;shape=mxgraph.android.rrect;rSize=0;align=left;spacingLeft=10;fontSize=8;fontColor=#ffffff;" parent="41tTYhLOXa8K0barruc2-2" vertex="1">
          <mxGeometry width="75" height="12.5" as="geometry" />
        </mxCell>
        <mxCell id="41tTYhLOXa8K0barruc2-4" value="Kebutuhan Air " style="strokeColor=inherit;fillColor=inherit;gradientColor=inherit;strokeWidth=1;html=1;shadow=0;dashed=0;shape=mxgraph.android.rrect;rSize=0;align=left;spacingLeft=10;fontSize=8;fontColor=#ffffff;" parent="41tTYhLOXa8K0barruc2-2" vertex="1">
          <mxGeometry y="12.5" width="75" height="12.5" as="geometry" />
        </mxCell>
        <mxCell id="41tTYhLOXa8K0barruc2-5" value="&lt;font style=&quot;font-size: 6px&quot;&gt;Parameter Kebutuhan&lt;br&gt;&lt;/font&gt;" style="strokeColor=inherit;fillColor=inherit;gradientColor=inherit;strokeWidth=1;html=1;shadow=0;dashed=0;shape=mxgraph.android.rrect;rSize=0;align=left;spacingLeft=10;fontSize=8;fontColor=#ffffff;" parent="41tTYhLOXa8K0barruc2-2" vertex="1">
          <mxGeometry y="25" width="75" height="12.5" as="geometry" />
        </mxCell>
        <mxCell id="41tTYhLOXa8K0barruc2-6" value="Menu Item 4" style="strokeColor=inherit;fillColor=inherit;gradientColor=inherit;strokeWidth=1;html=1;shadow=0;dashed=0;shape=mxgraph.android.rrect;rSize=0;align=left;spacingLeft=10;fontSize=8;fontColor=#ffffff;" parent="41tTYhLOXa8K0barruc2-2" vertex="1">
          <mxGeometry y="37.5" width="75" height="12.5" as="geometry" />
        </mxCell>
        <mxCell id="41tTYhLOXa8K0barruc2-7" value="" style="strokeWidth=1;html=1;shadow=0;dashed=0;shape=mxgraph.android.rrect;rSize=0;fillColor=#444444;strokeColor=none;" parent="1" vertex="1">
          <mxGeometry x="260" y="100" width="330" height="30" as="geometry" />
        </mxCell>
        <mxCell id="41tTYhLOXa8K0barruc2-8" value="About" style="strokeWidth=1;html=1;shadow=0;dashed=0;shape=mxgraph.android.anchor;fontStyle=1;fontColor=#ffffff;" parent="41tTYhLOXa8K0barruc2-7" vertex="1">
          <mxGeometry width="82.5" height="30" as="geometry" />
        </mxCell>
        <mxCell id="41tTYhLOXa8K0barruc2-9" value="Data Irigasi" style="strokeWidth=1;html=1;shadow=0;dashed=0;shape=mxgraph.android.rrect;rSize=0;fontStyle=1;fillColor=#0099cc;strokeColor=none;fontColor=#ffffff;" parent="41tTYhLOXa8K0barruc2-7" vertex="1">
          <mxGeometry x="82.5" width="82.5" height="30" as="geometry" />
        </mxCell>
        <mxCell id="41tTYhLOXa8K0barruc2-10" value="" style="strokeWidth=1;html=1;shadow=0;dashed=0;shape=mxgraph.android.rrect;rSize=0;fillColor=#33b5e5;strokeColor=none;" parent="41tTYhLOXa8K0barruc2-9" vertex="1">
          <mxGeometry y="27" width="82.5" height="3" as="geometry" />
        </mxCell>
        <mxCell id="41tTYhLOXa8K0barruc2-11" value="Update Data" style="strokeWidth=1;html=1;shadow=0;dashed=0;shape=mxgraph.android.anchor;fontStyle=1;fontColor=#ffffff;" parent="41tTYhLOXa8K0barruc2-7" vertex="1">
          <mxGeometry x="165" width="82.5" height="30" as="geometry" />
        </mxCell>
        <mxCell id="41tTYhLOXa8K0barruc2-12" value="Login" style="strokeWidth=1;html=1;shadow=0;dashed=0;shape=mxgraph.android.anchor;fontStyle=1;fontColor=#ffffff;" parent="41tTYhLOXa8K0barruc2-7" vertex="1">
          <mxGeometry x="247.50000000000003" width="82.5" height="30" as="geometry" />
        </mxCell>
        <mxCell id="41tTYhLOXa8K0barruc2-13" value="" style="shape=line;strokeColor=#ffffff;direction=south;" parent="41tTYhLOXa8K0barruc2-7" vertex="1">
          <mxGeometry x="234.5675675675676" y="5" width="17.837837837837842" height="20" as="geometry" />
        </mxCell>
        <mxCell id="41tTYhLOXa8K0barruc2-15" value="" style="html=1;shadow=0;dashed=0;align=center;verticalAlign=middle;shape=mxgraph.arrows2.arrow;dy=0.6;dx=40;notch=0;fillColor=#FFFFFF;" parent="1" vertex="1">
          <mxGeometry x="430" y="140" width="70" height="10" as="geometry" />
        </mxCell>
        <mxCell id="41tTYhLOXa8K0barruc2-22" value="" style="strokeWidth=1;html=1;shadow=0;dashed=0;shape=mxgraph.android.contextual_action_bar_white;fillColor=#E6E6E6;" parent="1" vertex="1">
          <mxGeometry x="510" y="137.5" width="200" height="15" as="geometry" />
        </mxCell>
        <mxCell id="41tTYhLOXa8K0barruc2-23" value="Daerah Irigasi" style="shape=transparent;align=left;fontStyle=1;fontSize=9;" parent="41tTYhLOXa8K0barruc2-22" vertex="1">
          <mxGeometry x="43.24324324324324" width="108.1081081081081" height="15" as="geometry" />
        </mxCell>
        <mxCell id="41tTYhLOXa8K0barruc2-27" value="" style="strokeWidth=1;html=1;shadow=0;dashed=0;shape=mxgraph.android.contextual_action_bar_white;fillColor=#E6E6E6;" parent="1" vertex="1">
          <mxGeometry x="510" y="157.5" width="200" height="15" as="geometry" />
        </mxCell>
        <mxCell id="41tTYhLOXa8K0barruc2-28" value="Petak irigasi" style="shape=transparent;align=left;fontStyle=1;fontSize=9;" parent="41tTYhLOXa8K0barruc2-27" vertex="1">
          <mxGeometry x="43.24324324324324" width="108.1081081081081" height="15" as="geometry" />
        </mxCell>
        <mxCell id="41tTYhLOXa8K0barruc2-29" value="" style="strokeWidth=1;html=1;shadow=0;dashed=0;shape=mxgraph.android.contextual_action_bar_white;fillColor=#E6E6E6;" parent="1" vertex="1">
          <mxGeometry x="510" y="180" width="200" height="15" as="geometry" />
        </mxCell>
        <mxCell id="41tTYhLOXa8K0barruc2-30" value="Bangunan Irigasi" style="shape=transparent;align=left;fontStyle=1;fontSize=9;" parent="41tTYhLOXa8K0barruc2-29" vertex="1">
          <mxGeometry x="43.24324324324324" width="108.1081081081081" height="15" as="geometry" />
        </mxCell>
        <mxCell id="41tTYhLOXa8K0barruc2-31" value="" style="strokeWidth=1;html=1;shadow=0;dashed=0;shape=mxgraph.android.contextual_action_bar_white;fillColor=#E6E6E6;" parent="1" vertex="1">
          <mxGeometry x="510" y="200" width="200" height="15" as="geometry" />
        </mxCell>
        <mxCell id="41tTYhLOXa8K0barruc2-32" value="Saluran irigasi" style="shape=transparent;align=left;fontStyle=1;fontSize=9;" parent="41tTYhLOXa8K0barruc2-31" vertex="1">
          <mxGeometry x="43.24324324324324" width="108.1081081081081" height="15" as="geometry" />
        </mxCell>
        <mxCell id="41tTYhLOXa8K0barruc2-33" value="" style="strokeWidth=1;html=1;shadow=0;dashed=0;shape=mxgraph.android.rrect;rSize=0;strokeColor=#888888;fillColor=#444444;" parent="1" vertex="1">
          <mxGeometry x="350" y="250" width="75" height="50" as="geometry" />
        </mxCell>
        <mxCell id="41tTYhLOXa8K0barruc2-34" value="Data Irigasi" style="strokeColor=inherit;fillColor=inherit;gradientColor=inherit;strokeWidth=1;html=1;shadow=0;dashed=0;shape=mxgraph.android.rrect;rSize=0;align=left;spacingLeft=10;fontSize=8;fontColor=#ffffff;" parent="41tTYhLOXa8K0barruc2-33" vertex="1">
          <mxGeometry width="75" height="12.5" as="geometry" />
        </mxCell>
        <mxCell id="41tTYhLOXa8K0barruc2-35" value="Kebutuhan Air " style="strokeColor=inherit;fillColor=inherit;gradientColor=inherit;strokeWidth=1;html=1;shadow=0;dashed=0;shape=mxgraph.android.rrect;rSize=0;align=left;spacingLeft=10;fontSize=8;fontColor=#ffffff;" parent="41tTYhLOXa8K0barruc2-33" vertex="1">
          <mxGeometry y="12.5" width="75" height="12.5" as="geometry" />
        </mxCell>
        <mxCell id="41tTYhLOXa8K0barruc2-36" value="&lt;font style=&quot;font-size: 6px&quot;&gt;Parameter Kebutuhan&lt;br&gt;&lt;/font&gt;" style="strokeColor=inherit;fillColor=inherit;gradientColor=inherit;strokeWidth=1;html=1;shadow=0;dashed=0;shape=mxgraph.android.rrect;rSize=0;align=left;spacingLeft=10;fontSize=8;fontColor=#ffffff;" parent="41tTYhLOXa8K0barruc2-33" vertex="1">
          <mxGeometry y="25" width="75" height="12.5" as="geometry" />
        </mxCell>
        <mxCell id="41tTYhLOXa8K0barruc2-37" value="Menu Item 4" style="strokeColor=inherit;fillColor=inherit;gradientColor=inherit;strokeWidth=1;html=1;shadow=0;dashed=0;shape=mxgraph.android.rrect;rSize=0;align=left;spacingLeft=10;fontSize=8;fontColor=#ffffff;" parent="41tTYhLOXa8K0barruc2-33" vertex="1">
          <mxGeometry y="37.5" width="75" height="12.5" as="geometry" />
        </mxCell>
        <mxCell id="41tTYhLOXa8K0barruc2-38" value="" style="html=1;shadow=0;dashed=0;align=center;verticalAlign=middle;shape=mxgraph.arrows2.arrow;dy=0.6;dx=40;notch=0;fillColor=#FFFFFF;" parent="1" vertex="1">
          <mxGeometry x="430" y="260" width="70" height="10" as="geometry" />
        </mxCell>
        <mxCell id="41tTYhLOXa8K0barruc2-39" value="" style="strokeWidth=1;html=1;shadow=0;dashed=0;shape=mxgraph.android.contextual_action_bar_white;fillColor=#E6E6E6;" parent="1" vertex="1">
          <mxGeometry x="510" y="260" width="230" height="15" as="geometry" />
        </mxCell>
        <mxCell id="41tTYhLOXa8K0barruc2-40" value="Persiapan lahan" style="shape=transparent;align=left;fontStyle=1;fontSize=9;" parent="41tTYhLOXa8K0barruc2-39" vertex="1">
          <mxGeometry x="49.729729729729726" width="124.32432432432431" height="15" as="geometry" />
        </mxCell>
        <mxCell id="41tTYhLOXa8K0barruc2-41" value="" style="strokeWidth=1;html=1;shadow=0;dashed=0;shape=mxgraph.android.contextual_action_bar_white;fillColor=#E6E6E6;" parent="1" vertex="1">
          <mxGeometry x="510" y="280" width="230" height="15" as="geometry" />
        </mxCell>
        <mxCell id="41tTYhLOXa8K0barruc2-42" value="Masa tanam" style="shape=transparent;align=left;fontStyle=1;fontSize=9;" parent="41tTYhLOXa8K0barruc2-41" vertex="1">
          <mxGeometry x="49.729729729729726" width="124.32432432432431" height="15" as="geometry" />
        </mxCell>
        <mxCell id="41tTYhLOXa8K0barruc2-43" value="" style="strokeWidth=1;html=1;shadow=0;dashed=0;shape=mxgraph.android.rrect;rSize=0;strokeColor=#888888;fillColor=#444444;" parent="1" vertex="1">
          <mxGeometry x="350" y="340" width="75" height="50" as="geometry" />
        </mxCell>
        <mxCell id="41tTYhLOXa8K0barruc2-44" value="Data Irigasi" style="strokeColor=inherit;fillColor=inherit;gradientColor=inherit;strokeWidth=1;html=1;shadow=0;dashed=0;shape=mxgraph.android.rrect;rSize=0;align=left;spacingLeft=10;fontSize=8;fontColor=#ffffff;" parent="41tTYhLOXa8K0barruc2-43" vertex="1">
          <mxGeometry width="75" height="12.5" as="geometry" />
        </mxCell>
        <mxCell id="41tTYhLOXa8K0barruc2-45" value="Kebutuhan Air " style="strokeColor=inherit;fillColor=inherit;gradientColor=inherit;strokeWidth=1;html=1;shadow=0;dashed=0;shape=mxgraph.android.rrect;rSize=0;align=left;spacingLeft=10;fontSize=8;fontColor=#ffffff;" parent="41tTYhLOXa8K0barruc2-43" vertex="1">
          <mxGeometry y="12.5" width="75" height="12.5" as="geometry" />
        </mxCell>
        <mxCell id="41tTYhLOXa8K0barruc2-46" value="&lt;font style=&quot;font-size: 6px&quot;&gt;Parameter Kebutuhan&lt;br&gt;&lt;/font&gt;" style="strokeColor=inherit;fillColor=inherit;gradientColor=inherit;strokeWidth=1;html=1;shadow=0;dashed=0;shape=mxgraph.android.rrect;rSize=0;align=left;spacingLeft=10;fontSize=8;fontColor=#ffffff;" parent="41tTYhLOXa8K0barruc2-43" vertex="1">
          <mxGeometry y="25" width="75" height="12.5" as="geometry" />
        </mxCell>
        <mxCell id="41tTYhLOXa8K0barruc2-47" value="Menu Item 4" style="strokeColor=inherit;fillColor=inherit;gradientColor=inherit;strokeWidth=1;html=1;shadow=0;dashed=0;shape=mxgraph.android.rrect;rSize=0;align=left;spacingLeft=10;fontSize=8;fontColor=#ffffff;" parent="41tTYhLOXa8K0barruc2-43" vertex="1">
          <mxGeometry y="37.5" width="75" height="12.5" as="geometry" />
        </mxCell>
        <mxCell id="41tTYhLOXa8K0barruc2-48" value="" style="html=1;shadow=0;dashed=0;align=center;verticalAlign=middle;shape=mxgraph.arrows2.arrow;dy=0.6;dx=40;notch=0;fillColor=#FFFFFF;" parent="1" vertex="1">
          <mxGeometry x="430" y="370" width="70" height="10" as="geometry" />
        </mxCell>
        <mxCell id="41tTYhLOXa8K0barruc2-67" value="" style="html=1;shadow=0;dashed=0;align=center;verticalAlign=middle;shape=mxgraph.arrows2.arrow;dy=0.6;dx=40;notch=0;fillColor=#FFFFFF;" parent="1" vertex="1">
          <mxGeometry x="430" y="370" width="70" height="10" as="geometry" />
        </mxCell>
        <mxCell id="41tTYhLOXa8K0barruc2-73" value="" style="group" parent="1" vertex="1" connectable="0">
          <mxGeometry x="510" y="360" width="350" height="117.5" as="geometry" />
        </mxCell>
        <mxCell id="41tTYhLOXa8K0barruc2-53" value="" style="strokeWidth=1;html=1;shadow=0;dashed=0;shape=mxgraph.android.contextual_action_bar_white;fillColor=#E6E6E6;" parent="41tTYhLOXa8K0barruc2-73" vertex="1">
          <mxGeometry y="42.5" width="260" height="15" as="geometry" />
        </mxCell>
        <mxCell id="41tTYhLOXa8K0barruc2-54" value="Total kehilangan air" style="shape=transparent;align=left;fontStyle=1;fontSize=9;" parent="41tTYhLOXa8K0barruc2-53" vertex="1">
          <mxGeometry x="56.21621621621621" width="140.54054054054052" height="15" as="geometry" />
        </mxCell>
        <mxCell id="41tTYhLOXa8K0barruc2-55" value="" style="strokeWidth=1;html=1;shadow=0;dashed=0;shape=mxgraph.android.contextual_action_bar_white;fillColor=#E6E6E6;" parent="41tTYhLOXa8K0barruc2-73" vertex="1">
          <mxGeometry y="62.5" width="350" height="15" as="geometry" />
        </mxCell>
        <mxCell id="41tTYhLOXa8K0barruc2-56" value="Jangka waktu pengolahan " style="shape=transparent;align=left;fontStyle=1;fontSize=9;" parent="41tTYhLOXa8K0barruc2-55" vertex="1">
          <mxGeometry x="75.67567567567568" width="189.18918918918916" height="15" as="geometry" />
        </mxCell>
        <mxCell id="41tTYhLOXa8K0barruc2-57" value="" style="strokeWidth=1;html=1;shadow=0;dashed=0;shape=mxgraph.android.contextual_action_bar_white;fillColor=#E6E6E6;" parent="41tTYhLOXa8K0barruc2-73" vertex="1">
          <mxGeometry y="82.5" width="350" height="15" as="geometry" />
        </mxCell>
        <mxCell id="41tTYhLOXa8K0barruc2-58" value="Tinggi penjenuhan air" style="shape=transparent;align=left;fontStyle=1;fontSize=9;" parent="41tTYhLOXa8K0barruc2-57" vertex="1">
          <mxGeometry x="75.67567567567568" width="189.18918918918916" height="15" as="geometry" />
        </mxCell>
        <mxCell id="41tTYhLOXa8K0barruc2-49" value="" style="strokeWidth=1;html=1;shadow=0;dashed=0;shape=mxgraph.android.contextual_action_bar_white;fillColor=#E6E6E6;" parent="41tTYhLOXa8K0barruc2-73" vertex="1">
          <mxGeometry width="230" height="15" as="geometry" />
        </mxCell>
        <mxCell id="41tTYhLOXa8K0barruc2-50" value="Porositas tanah" style="shape=transparent;align=left;fontStyle=1;fontSize=9;" parent="41tTYhLOXa8K0barruc2-49" vertex="1">
          <mxGeometry x="49.729729729729726" width="124.32432432432431" height="15" as="geometry" />
        </mxCell>
        <mxCell id="41tTYhLOXa8K0barruc2-51" value="" style="strokeWidth=1;html=1;shadow=0;dashed=0;shape=mxgraph.android.contextual_action_bar_white;fillColor=#E6E6E6;" parent="41tTYhLOXa8K0barruc2-73" vertex="1">
          <mxGeometry y="22.5" width="230" height="15" as="geometry" />
        </mxCell>
        <mxCell id="41tTYhLOXa8K0barruc2-52" value="Evapotranspirasi" style="shape=transparent;align=left;fontStyle=1;fontSize=9;" parent="41tTYhLOXa8K0barruc2-51" vertex="1">
          <mxGeometry x="49.729729729729726" width="124.32432432432431" height="15" as="geometry" />
        </mxCell>
        <mxCell id="41tTYhLOXa8K0barruc2-59" value="" style="strokeWidth=1;html=1;shadow=0;dashed=0;shape=mxgraph.android.contextual_action_bar_white;fillColor=#E6E6E6;" parent="41tTYhLOXa8K0barruc2-73" vertex="1">
          <mxGeometry y="102.5" width="230" height="15" as="geometry" />
        </mxCell>
        <mxCell id="41tTYhLOXa8K0barruc2-60" value="Konstanta" style="shape=transparent;align=left;fontStyle=1;fontSize=9;" parent="41tTYhLOXa8K0barruc2-59" vertex="1">
          <mxGeometry x="49.729729729729726" width="124.32432432432431" height="15" as="geometry" />
        </mxCell>
        <mxCell id="41tTYhLOXa8K0barruc2-74" value="" style="strokeWidth=1;html=1;shadow=0;dashed=0;shape=mxgraph.android.contextual_action_bar_white;fillColor=#E6E6E6;" parent="1" vertex="1">
          <mxGeometry x="510" y="480" width="310" height="15" as="geometry" />
        </mxCell>
        <mxCell id="41tTYhLOXa8K0barruc2-75" value="Pergantian lapisan air" style="shape=transparent;align=left;fontStyle=1;fontSize=9;" parent="41tTYhLOXa8K0barruc2-74" vertex="1">
          <mxGeometry x="67.02702702702703" width="167.56756756756758" height="15" as="geometry" />
        </mxCell>
        <mxCell id="41tTYhLOXa8K0barruc2-76" value="" style="strokeWidth=1;html=1;shadow=0;dashed=0;shape=mxgraph.android.contextual_action_bar_white;fillColor=#E6E6E6;" parent="1" vertex="1">
          <mxGeometry x="510" y="500" width="310" height="15" as="geometry" />
        </mxCell>
        <mxCell id="41tTYhLOXa8K0barruc2-77" value="Efisiensi Irigasi" style="shape=transparent;align=left;fontStyle=1;fontSize=9;" parent="41tTYhLOXa8K0barruc2-76" vertex="1">
          <mxGeometry x="67.02702702702703" width="167.56756756756758" height="15" as="geometry" />
        </mxCell>
        <mxCell id="41tTYhLOXa8K0barruc2-80" value="" style="html=1;shadow=0;dashed=0;align=center;verticalAlign=middle;shape=mxgraph.arrows2.arrow;dy=0.6;dx=40;notch=0;fillColor=#FFFFFF;" parent="1" vertex="1">
          <mxGeometry x="750" y="262.5" width="70" height="10" as="geometry" />
        </mxCell>
        <mxCell id="41tTYhLOXa8K0barruc2-83" value="" style="shape=image;verticalLabelPosition=bottom;labelBackgroundColor=#ffffff;verticalAlign=top;aspect=fixed;imageAspect=0;image=data:image/png,iVBORw0KGgoAAAANSUhEUgAAAJYAAACWCAYAAAA8AXHiAAAgAElEQVR4nNxd558TZdsNRcXe22Ndeu+igKKAoshjAVQQHwtNqYqigoggHem99wW2b3pPZtJ7nZntNbsUKfs3nPfDnUySTdlsQeT9cH7Kpmw2c+a6r+tcTdBIm3CrUCZTo0ZnQZOHQ5OHQ6XagAqF9pb9vmQokaj439/k4VClMaJEokz63HK5Gk0eDs7c4n/0M7YW9ToaTR4O1Rpj0sdfeYJB904c1Ids0B21IkvAoZE2oUppxrRhfvTozKFSYUYjbUIDZUKWgMPwR1j068ZCvs+GRtqEid0DyBJwGPYIk/JzjHoy+WPOnGIIbtUfz0k0aPJwuOlmUak2oEZD3ZaLwEoIWTwFYlwyu3HTzaLJw+GyxYOgUI56nYF/LiOSo8nDwZ0nvO3kyYRYVSmIVa83oU5L/n/4owxO/OYgxFKZ0eduFmv/5076Osd5a8afwXjKhi/G+HFhgx0fDfIjS8Bh2YdeePMsaKRNt4ZY/mJygWp0FtRo9Lf1IlxzBHDV5uP/Xael4SuS4YaLQZOHww0Xg0qVAaVSJbwFYjR5OLBixW0nT8vEYlGjbfm5EYsUfW3HfIbVs9zYNMeNLAEH0U47mGILLm5wYPCDLCZ2D3Y8sarVFG66WdTT9tt+AWo0FG8xE79wIziJCrV6K39MXrX50OThUK5Q3/bPnpZYegNuuBjU6i0ZPf/MHw688XywQz/D+JeDyNtsxpT+ASgP2OIe27nY1fHEKpFpycWR3/6LU6nUhT9Ler+uVkvDVyjFDVeQJ1lAKLvtnz8VQnoDrjuDqNWnP7rKZGqUha/DpJ5BnFvr6LDP8PssMxa8y2HDbBdWfupBzkYHqOPRz5NArAYqFsnP8FTgxAripKsSLcTtACMijnuFQpPR8xsoI0qlap5cjSYXOHFyR//fQKw6Kj2xLls8uOkmDnaV0oyeXaJOe3tx2eJBloBDqdSMrfPdWPulO+7I5YnVQJlQrzeiTkejWq1HpUqHKlXmEVyVSodrjgCuO4Oo19G3/ctvpE1oMDgIQdrw2jK5jvfDKpTkO2nte9RoKJRINa2+QUN6A8oVutR/F2XEVZuvxaOwycPFuSRDHmThyc3s+EyHarUeTR4Orz7FgRVF32/qUD+mDfOjQmGOEqteb0SthkKVSo8yuRqsWAFWLOdfVKnUwVsgRq0mkTSVSi0fbbGif4/jSySOtpO8XmdAuZLmo9tgK4/HUnnb3AJ3vjhsaVPf2HVaukXCkiM9ej2GPMhCsZ/4Q8ZTtpSvC+kNOPabGiMfD6L3XSx6dWXR+y4WE7sz2PqdEd5CBcoUHMY8m+i3/fWdC907cRBEjr06LR0mlQasWA5vgRieAhFKJEpcd0Z9jxqdGeVyLaq1JtTpLWg0uXDDxeCmm0WZ7Pb7VRGUSJRo8nDwFkja/V7lci3+tvvR5OFQ2wrZpCwNsep1hpQRc5RYmR3hyVCpJL/bFaPJuXMtyBJwyBJw+GK0D+/2CvD/fvUpBp8M92Pg/Qx6duHQswuHV57gMPoZDoMe4NC9E8c/t0dngu6dkp8Ggx5gIajTEY2pSqVDuUKDUqkKrFiBgFCGoFAeJy42xzVHAJctHjQYHWBF8jZ/CbeEWGFfqVbbMccyFyYq1wopopwPHpIQxOTEZYsn6es8YdmjSp36OGwJwWJZ+MYSxf28LoVEwUmU2LuMQ/97OQx/NIiNc6xghIn+WK3WiN8/JwR95QkOOxdbE96/X7cgBFVqPcoVGpTJ1CiVqsBJlCiRKFEiVaFSRc7SEG1HQKiEr1CKUpkGdToadToaIap1vsM/iXrKhhsuBiF9xwQSJTJ1qzWuCqU+LF8kEuuSyYXrzuQSgLcDiOUvkmZs9UpkWrASYoE8eZlZ5CEPMbBf5DDw/nj1vUplxvBHfRCUKzRgJYo4lMrUqFRqO+xuvy0wuXDZklxhbhOxwhawNRarKnxjJvOVKpQUmjxc0vRSxGIFimUok2tQrtChUkURqGlUqmhUqg2oVBtRpTGiRmdBPW1HyODAZYsHV20+PvDIFMMe4WA8nbny/tpTDJy5NG+Rq9V6XLX5UKHQos/dLAQlEiVYUZhQUhXK5RpUKnWo0VCo76C7/XbghotBo8nZ8cSStJ9YIb0RpVIVH/A0GJ0olWlxxeptkQA33SxuulnccDG44WJw3RnENUcgDD+PiF9cT9tRq7egSmNChYpGmVyPUrkenFSLoEgJf5EMS6aY8dkr/lZ9H4MeYFGj1oc/CwdvgRjXHBxyNjuRJeAgYIRyMEI5SiRKVCg0qNFQqNXSqNMbEKJuP0Haiktmd0ofpj3Eas1RWColOlqJVItKFR32q9xxwVBz1NN2sBIN3PkSlMo0qNUSqaNarUO1Wh++PhTqdQaE9IaUkWG11pSR1BLSx6d8MkWPzuQ1JRItunfisH42i4H3c3inZxCaowoI/EUSBIUylEpVqFbrEYoRSG83OdqDKo2BXKgOsrrlCm2CxarVUqhQaFCp1KJcoUWpXIdKtZFPDSULdhqMTtRRVlSpDSiVqsGK5O2K/lKhVm/JiFi2bEuriVWpMPOvqVSaMfRhBrNeI4Jpr64clv6XIkdhqVTF+1R3OqEiYISRqEjcocS6ZHZndFxVqY1w5RbDdqEQNep/vrKjnrbjpptN/bjOAMleKbIEHLz5rRNN/QUW9OpKiFUqMePL16NJ/u6dOPS9hyVRYbVaj1ot/a/3qao0RpS1kPeLoIEyosnDoY5KLQS2BmVyDU+cS2Y3KlQGlMq0KJPrUKHQEjdCrW+1yn7LYHLiRrOos1ZLk+hfpkIdReq0PHmtV+ItZ62YNiyARtqEU6sd2L7AFff4nh8cUYH0TrBUl8xuNJpcGT+/UhU+DjsgxVQZlg64FEWC7UWdzgRObIHzohXUMSuku204+qsTwWKiJYX0qQlbrdYjKFKClahRrqTRaHLxgUEtbQcn1aCOssVZ1V8/ZbHg3bbddAVb7Fj3NYm454z3QbQz8X1uWaHfrSJWKu0nGSIOd0dkBNpLrKJtdmye58Y347wY+58ghj3CYtADLPrew6Jnl6iq3asrh3d7+bHkfS82zHYhS8ChXmfCdWcQrDj531GtMSY5ktmEn03szmLYI0Ra6N6JQ72+bd/FTx97oAiXyvS+i4X5TKJMcUcRq0yua1VSOZIsrVS132JFpIPWEmvv9y706Mzhu3d82PadC6d+d0Cy2w7bOWtGlQbn/nTgrZeCUBx0pBQ8G2gTqpRa1MVY5itWL5+AjojEi97z4rcZHnhyLSiTtr3KYeRjDJ/MzhJwSd/rjiKWv0iCJg+HUpkqo+eH9EZcdwZT1oa3BjVqImiWSjMnVpaAwzs9Au3+3TkbHcgScLhkYnHZ4kGdlkadliaFAYUSBEVKOHOVsJ6XwHFRBmeuHJfMAVSo4i3JgPtYqA623+fMEnCoVBIyRWSHO5pYEV3IcbEo49c0L01uKyLWr1Sa2bF69FcnPh7cflJF8NaLQehPyOMizyYPh83zydEWOUqbo1dXFkMfYjHqSQbv9e6Yz9PnbhJtNlDR/7+jiRXSE1/CX5R5wrtak5lQ2BLqdIakxPIXWBKw9wcn+nVjUSLumKK6RtqEX6d7UPCXHRUKDarUBmyY40e/bix++NCDMpkZ9XojqlRalMlUcOYokSXg8NXr0YpRTmTukACtXGbmu3Ns2RYMvP//AbEaaUKSK1Zvxs/3FpJkbF078561WjohEPh5mge9uhLdJhbDHkmtH7UVnnDJy+LJXmQJOPTumvpmYYXkuFr4bseVIkdQ+Jcdk3qSACp/ix3v901uBe84YoVoe6sskP1CIUnoFkk7iFjEeV482Ys3ng/+ozLNxQ125G6yw3LWilCaiC5QZEbfezis/KzjifXnV26s+5pIPjsWurBpbnL5544jVqlc36IFaqCMKJNr4lTyUlnbS1BiiVUq1+G6k2tTfu2fgjffjP73ctg8r+OJ9cUYPwynSFCwYJIXplPJBdY7jliRqsxU+TVGJOdLRm66WbhyhQgZHPjb7kdDK39XA2UEJ1IgUCxPKENJVT35b4Djghn9unHY/2PrIkDrOSumD/djwH0svhjtw8UNiS18o5+J1l+90yO1pnjHESvS0lWpjE/tlMs1qKOsMRZKy3c5V6qItUnWjV2p1IITK1EWLreu1VnC3S3xAuNVmw8lMi3K5Rp4C2UY/CD3j6Zv7OetsGfYqUyfNKB7Jw6nVyd/vIEygRGakb/FjvkTfRj6MIueXVjMfNWBE7/bQJ+y4civJiydYsJ7fbzo2YXcSG88H4yz1D27pL657jhiVShIzi6SM6zT0WBj2vnL5IlHXklYpgiKlAgI5ajWmlIUwrG45giExUUbWIka3gJxQoeOK0+Esf/h2tS501oo9tvQ+y4WY55l8OpTDN7pGUjq19nOWaE/akO5zIzCbRSyBBzyt9LI3WTnpYc+dxO1f9gjAbz2dBBT+rM4szaAMgUHZy6Hk6s5zJtIyl+yBBw+GMjh+CoOviIOdRSDaq0RuuMasGIVajUUxjzrQ/97WWQJOIx/KYgdC90wn7GiVGK+84hVq6V4i+QvkvIEqdVbU17ouvCsg/gSFj9K5Xr4imQolal50TGTcmtXngjv9ubguHBrB5ycWOVAn7tZaI9Ej7RdS1wYeD+LU7878fvnHkwd6sPoZxj0v5fFrNFkhkLfe8jF7teNQZaAg+aIAkERjez1Xix8z4c3X2Qx8nEOfe8hBOp9F4NPRjixe6kd5tNW+PJNKBEboTumxfrZOkzs7gu/L2mu+HocB+Eu8j1edwZRT/thOWfB9kUavN+PRK13HLEaaVOcQOjI8WHUk0HMHe9Lm/u6avPihotBdZISliqVGd48C4/mj1cqzFj2oZfHyhlm/DSVw48fZZ4QT4YSsQWmU1YUb7fj+EoHNs9zYcG7XvTqymHIQyyWTvHy01/4G0tDI3sdhfkTbdgwx4nTa53QHLWhSm1AHWXDZYsHf9sZNBg5KA5y4YkxHKYO5fD9BwFsW2hD8Q4jAkUaVKlaH9DYs404uNyKBZO8eP05QuSB93P4ehyLA8s5GM9wuO68w4l1dKUavbpyMJ+2YtmH5E4pl8WLknVaE38cXDJzqFLpUKclP69SmrFgEvEhBj/IYvCDLAbdT5LCpVIzajVEWBz1JINlH3ih2G+HYr8dA+5j8OunxCpEjqXmFSL0CSu2fefC3PE+vPFcsJkazqHfPSwG3s9i6MMsJmYFsWCSB7sWO6E8YEFIb0C1mkKgWAZPgQTlSjpt1WmkVPm6M4jrzgAumVxo8nDI2+rE8EeDqPkHjmx/oQW/TLdj5GMMqce63SRJhVKpCkyS5tcGihCrTEFBecCGWa9Fa7UtZ0iN0ft9A3i/bwDjXwqieycOS6d48fUbHoh2c/jlE1PcRd652IVaTfzv0B6x8o+/3SMA/dF4q1Eu1yFLwGH9N+Tn7/UJoFdX8vxRTzIY8RjxhU6tdkC6xw71YSOo4xqYz8oQKJKBk6hRoaJRT9vQaHSiXOmC4bQXeVuD2LuMxYrPOPxvLIePh3Co1karT6s1JrBiNUqkGlQq9ahSkXLlOl1i8+oVqxcNBpJjrFZ3XAYgU/xriVVHWfG3w5808oo0IPgLE8tqvfkWmM9YYT5jhS07GkV588wY9SSHgz97MeKx1MPE0oETm6E6aMPhn+3o1y1Kzk9HelEq14KTasFJKQSETjSaWGxfxOH7Dzh8OpLDG89z6NmFjWv6HPIQizHPBvF2Dx8+GOjCjFF2LJlix6Z5dhxbacKct5wo3t42UlwykY7k9V93XKfS/wtiRVqZkj0WmRHRSKfOridD33sY9OvGwnCy5bDdccGKVTM9GPQAy3f9Zgk4jHycw6Z5ZG5Bo4nFTTeHNV9yfEjevROxMO/05LD0v17QpzSwXxTBer4YgSI5KpX6jAsr/5jlgXhX68dB1WgoXHcGE266/3fEqlBowIrk4CQKsCJFXN1QKlx3BlK2b1WEdalGmrQh+Qszu6tnjopMSCFlN86LFhz62YmF73rxXp8A+nVj+XbzJVNI+G04zcFTwKJ4J4cNczl88yYhTf97CdHe7R3Avh+cMJ6iUaOhcPoPO3p15dJqPJmiObHKpGbMes2PL0b7EShMrnhzEhWk+xj068Zhx6L2DwD51xHrktGKUpkW5UoKqsMSzBm/DxvmrIOvSA7L+QJUqAyoTjMHocnDoSJFgV5ktkG93oCt37rw3TuZJaU9uUZkCTgU79RjxGMMRjwWwNdveLH5WyeokxyKd3L4bSaHt3sQgnXvxGHQA0GMeyGIj4f48edXLkj3tKxmZwk4DLiv/YnoP2Z5cHFDNC2jOmjDF2N8OLvGgYH3s/j8VR/mv+3F2GeJddqxWIe5E8iwDl/B7RnNecuIFaKM2L7oR7z2dDEGPeDBoAdISDr80X3o0TmIHp2DGPk4h5+n78e+H3/DFas3oQU9MmMzKEzew2e/WATSgavmL2Qmny1no533b9z5Qfw2k+V9pUm9Avh5mhHi3RQChWaUy0xpE72pwAi1yBJw+Onj9qvy5nAwYjtn4Ym18F1yEzVQJhRvt8OdYwFTbIFsrzWsXbFp6+PvSGJxUjXMZ4lP8t8BZ3Fg+QEcXXkMtToTKpR2ePIc8Ba4cPgXCq89bcXgB4PYNO8UstdvQ6XayLf0MyIywM1fmHxSTKBYGq7LIhULU4f4ESxONPshvQnZfzrwyXBC7qlDOVzYyOKjwRz63M1h+VQzOLG6Q7uTCv4iVlF1sGMiMdNpC6YN9fOO/7IPk1vnV57wo3snDuJdt+/4uyXEKpdrUbSDRZ+7OZTIKFy1unDJEHWSI/5LloBD/3uJhjPoAQb972Uw7JEAWIkH3kIpSqUq3iKVpCgDjlRzBorJvKrBD8YfOzVqE958IYg+d7N4rw8D2wUWfy0gv3/0MwHI9926GV6rZtLIEnCoUPxzcy+KtuvDY4c6rmL1X0OsGh0RKOX7LyR9vFRixu6lZF5l904cRjzG4L/9A+jZhcOYZ5mwBmTBtoU/Rtu20liSSAlLI02OwlOrHaCO2bBtATkScrdwMJ/jMLE7IfPGOTaUSG79ETG5L4O+97RNzmgrXn2KzLmqkN9+QnUosbyFUkzpz+K3mdmo0WZ28cqkZqye5cbIxxjekv348SnoT5yH7ng27BeLUaGk+Ekm9Toa9ToatVoKNRqSL6zTW1Ch1MF63oAvX+fw5escZozisOVbom6/388P6e7MJ6i0F7Vakvyd0j/zCtf2QnFAhe6dOCya3DGNubeQWOZmaPlNXHkm9OrKwHq+oM0fJEvAoVRuw3VnAOfW/YUjK9Zi9Rdz8cOHn7XY0h5Ja7z1EnHM//ii44aBtAbWbAmJOne0r6iwtd/bv7E2LIZYZjQazGg0WGLQMrEqFDp8MYbF+m9yMm5/b47czQb0vYfBhJf9CNEWnPh9AypVNDbPXwrN0bMokZKBG6VyHUqkWpRItWAlKnBSkkitUulQrzPilccZrPjs9ijNjbQJiye7M45QOwLZ64g/d37dv280QpRYYVJdMsajpTfY+t0K9L+Xg/lcXqt/ufOiiS/xeOvFIIY/ykB3NHp01WlNOP6bEzkbHdActsGVY0GtJpHsFXLyM9NpKwY90PGNDJmggTZh+KNB9Oraut8fGWP9bu8gVs10p9wcEdLHq/UNlBH9urEY+Xjr5YV6nYG/ISP5xhq1HrXhEUl1WgPqdXS7ZAtBrZZGUmho1GnT3wmuPBHe7sHi4M92/G1vvV8xd7wXE14O8sQwn7aiR2cOE14O4sNBAfTozGH+BB/++MKNyX0D6N6JHHXLp3qwYJIHgx9k+eRv764sundK3pX7T6BcTqzH9OFu6I7aMO6FIPK3pk/HrJ5FSFWpMKNEbMaQh9iE6owItn3nRs8uHCZmBUnG4BdyDDpzREmfHyw2Y+jDLKYNC2DHQlecHDP4wSCGPMShnk4c6NZ8sJuvsG1NKIJSmRolUjVKpCoye1SsBCcmqZcSaeqO48smGxQHi5Al4BCi2+Ygv/WSHydXJaZtzv1px8GfkqdzatRm/D7TjaO/OmDLjreoVarbQ6pG2gT9MSv63M1h9Rc2vN0jgJ2LydyFdCJrbNlNI00kmVTPXfCuD/bzFhxb4cSwR4IYcB+LpVNS14PlbLRj5ig/Lqx3YP5EL6YODcT93leeCII6YcT3H/gx/20GQZEBFSoDKpQ0giIDH1DdcLUtwhX4imTwFkrgyRfDlSeEK6cIjotFcFwohDtfiHqdgUz409Ko0dAokarhL5Liwobt+HgIKW/tfy/X6iMopDehR2c2KbHuJCj22zAxK4iZo/x4/TkOY/9DKhnKFJaMiBX5/wbalNYJn9wngEChBa6c6EjtdNMFty8g0k4jTfoft8x3xf3e155mYMsm0sy454MwnIxGlf4CCwbeT6L1RpMT9Ro16tRK1CplqFGIUS0TokpaiCpJAarEeagS56G86CxKLh5A4NRmeA6tgMCdL4E7XwxXrhCOi8WwXyiE7XwBrOcLYDtfAOm+Y+CkWmxb+CP2LluBfT/+BurkBeiOZ+PL11fBcNoD2V4bunfiUKXM3GK88gT54Hc6sfp1Y3F0hRPdO3FoMAbCtfKkBn/GKA6b52dGrDKZOa3j368bixKJGZazxJqsnJH+e/vhAw82zbWgQkXjo0EBWM5a435vLLHe/A+NReMugj2wGJXHlsO4+S/MfpXUnIlXncCZRUew/5sz2PxpDlZNKcbStxSYPUqPTwaY8F6WDe+8aMf45xwY96wLY55y49XHPRB4CiTwFsrgKZDCky+BO08Md74YnnwxGLESK2d8DeOZXFyxepG3dQ8ubNyOY7+tg+FUMfZ870Xvu1i80zOA/C2Zl3d8M86HJVO82DRPjwMpjrw7AbZzVr6KoVZLNo1Vh+eoVyq1KFPYMLE7h9HPMKhWJ74+du6BO8eScg5ChAxVSjNK5Qb06MyBEaavCp0+3I8za8mcrGGPMCjJOwHfiQ3w7l9KKjges+HEghwy0W/fIXw54gKyBFFNcf20I3gv6zw+G1SMxW/KsPJ9GdZPE2HnF0U4NDcPZ5ZcRP7P5yBbfRrUpuOw7zyM4MEDqDq1B5cv7oTAXyxHQKhEQKiAv5ggIFSAEatQptCjwehEjc6CMoWeV7obaRPe7xvA4vdbrxdJdtv4MYPGU1a80/Pfk4ZoLQbcF2104BtaZdGEep2Oxk03i2/e5OKi3QhiU1HUcSs+GZ76u8gScCiX67H/J1JYmOp5IZ0OdWolJrxkh/DPo7guPU3Ksi/sRN3Z3fh+ggo9uzAY9ZgcY58y4sj84zg09xN8O+YVCH+bj1OLlmLe6DX4ZMAWTB9wDJ8PlWBafyPefNaJAd2imyxiQYIqFr26sOjdlUGfu4LEx/ILFWFyETBiFViJGiUyDTiJmkcssbIEHKgTrXfaswQcasKSQXkL5j9T7F/mxPThfnw51ocfP/Jg81wXjq10QLjDlrJuqSVUyM3w5VtQr0t+vH8ywo/l06I3Fismmyuaz21nxQoseJfDlP6JN+ErT0Qd44sbHdjwTWpnvPddHBqNTvS5O7p2pSTvBCw7F8OxfTZKDv0A46Z5WPV+Ifp3C2JqXzNqz2zBpk/fx7R+enTvFMTIR4qwfVYRdBu34c+PC/D600Ks/mAi5o8Zib9m/heXL27BVyP1+GbUYZxceBrFK87g7HdrcPSbhTj17SLkLPsRot9XQr1pLYy71sN5aBMCp7aCPb8HJTkHUZJzGCW5R1FacIr4WJ4CaRx8hVL4i+VgRIqUxHJcIE5kqhUa6YiVaSSUKWa/6cPJ350484cDOxa6sOJTD+aO92J6uKqhLe/5fr8A3u1F6uZfe5rB0IdY9Lk7mkhvPhKIEZPexWRFjJUqA77/gMWoJwMolUSJ+vpz0U7iP75wp60WHfJQENnrgpg5SAzdxiW4dGEnjFuPYfusIrz5LJmt3r+bEZ8NOo+/8/6CZdtP0Kz/Aaa/DmH2qPX4oJcu/JwA3ssyYulbeUTqOLsBN+1OfkXd5B5GNCikuGL1tGr4SnMIHDnFcFyMhytXCHe+GL5CaUpiTRvmx6qZrVe5m1/o4Y8yCBa1r9Rj5ig/SiSJ75GsJj5TjHkmdZidLNKLzIlI9vwGmuz3O/tntHG0QmHCxO5RYk0f7o9b+cbmHsGqyRsxOUsN/cY/MPYpJ/p3C2LUY2706EwK+0Y87MWJBdkQ/bYEf+fuwNkly1C84nv07+bDts8P4tXHN6F31yA2TT+LwN6fwV48jpBOjwY9hcsXt2Dowww/nqlcSazgmy8G0UAZ8bfdn/EG16TEcuWJ4MwVxsGVK4QrTwh/sQxVGgN8RXLSXq7QwXDCisEPspj9ZtuGmfXoHLVQRHJo/1H44aDkvok7p+3ESmdJazR6VGvNfFtVZEJzeZqRlIxIGZ5Wo8LyqR5sne/Ge729CGTvhmPv9+h3TxDWrT+h7NAPMGw5gkNz8/HuyzZs+lSIUY/p0OcuITZMF2H+mEXgjmzAr+8dxtsvRrucJ71E3Ardnysw5KEgfv3EgwH3Jp8PSj6zCeNfCmLJFG+4aJL4hsMeZlCnpeMCkTYRi5MoESxWghMTsCIlgkIZyGIBBW66WbJ0UUMsw9CHWX6Sb1vQ/97MI6FM8XaKcYy2bGurS1iYYgvoE9aUhIx0Yjd5WH5sZFl4gZOvKPk+wzq1Ev78AjQ5fTBt/hz06mnkOM3S4udJ46D6c1HYCQ5i4L12DHlAg29eEWPOq7/iRsF2rPnobdwo2A7uyB84sWAmPHt/xegnbfAc2I6S7B0I6XQolRBiFWy184PR0sF+3hqu7+ew4rNo6qZHZ47/GytUbS9vFnw0yIdeXVl8McaDSiWF6vA2sFOrKcx+04nRzwSx70eSStn3Q/ulgaEPR//oM384MXdC/DnuOG+F5pANmkM2cD6XHxIAACAASURBVBlOxBubZCFjI02izlefynzKsvoQ+bJnvOJH7ubk/k6ZPDyJOWZVHCch/lW1So9quRjmHYtAr5kMdt93aDj3B65cWI8bBdtwo2A7j6qTe+HafQi6DUuRt/xr0JuXY3L37shd/g0+HzIQi958DSsnv4UbBdtRf2EbzOs+BHNuJ+pVCgSFCox8PH7paLWauBkzR/kg25tZCQ0j1OGag4vLb2YJuJTTC1tFrMl9AwjpTdi+0IX+97Lo1YXDpF5+fDfJhR2LLDi20h7unfPx01vag9i7qUppRv97Wbz5YhB7lrpQEr7r5k/04YvRvrRjcmIx7JHkd6j+mBXv9spcztj3gxO/fpJeQolYp+DF4/AcXQPfoeWozN6KG7IzuJKzKY48meDisq+wZcb72Pb5f3F68edozF6DU4s+R+nZzagoPMkP9A0WR62hp0CCft04VKRZ75sJKhRaXLX5MOqJAJ+jzBJwKFeQiT7t2YedtNAvshe6Qkk++ISXfRj5OItXn2Lhzpe1a3zPG88lkqVabcaS970YcB/LH0HWs1a80yOIWo0JtRpzUkRe3/ee5Mep6qANn42M32pVqzEhUGgBJ0q0hkumeLFnabxVrtdqUauUwXN0DTS/vI7yQ4tbTZ5YXM//C1cubkDtqZUwrZ0M7tAycLnH+N8XytuHRl3UGjpzhWjyRNM3Ib0BQaE6nC7qmHKZP79046ePPDyxAuEFqKlKw9tMrBBlQr3ewIfOdVoT1n1tQ5aATBzZsdiDQHHrN6qG9Oa4SCgZIolk61krP48pFSxhxzSVPyTbY8P8t+ODjB6dOfy3fwA/fJAYSr/fL4DD3xdg4QQVjszbg5rjP+NS9to2k+ha3lZwe+bAunE6blqtuGa2IKRVI0STVAsrVsFfJOXHTyaDI1z/XyZTw3TGitlvBTDycQ797+248mfxLhufpB7yEANfEdlDVN2ORZytLk2eN4GUevTqyiFnswdl8sy3tJeIzSmHoUbASdTgxEpYz1rx+n+Sd/M2eTh8/hrHz1RIRSzhDjt+mR492uq0Jox7PogatRmT+wRQIbyI4NkdcO36Fv7tszDhOSuGPejD5CwrRjzsy5hAjefWoOLwErAHl8Cx61u4Dq9GjSLaYRRZellHWXHZ4km5pPKmi0GNzoKS8I6eSqUOnnwJlIeIj/vBgAB2LLaBEysRoozwF1iwZT5xYT4c5IfmcNvKk4/86sS88eQGHP8y2YDR5GnfYLk21bw3UCa88byPl/MNp4PwFba8Zct+3tLi7PMmD4cqLbFYE14O8q3rsRuqmjwc5k6IphNSEev8Ogc2zHaFP7MRf319DrMGHIR/x2z07MLiRsF2FK04hyk9rHHLtD8bZAC9+XhyK5T/FxwbP4JixXiwFw+hkTKikU5/AWp0FjJHqpmPGtIbwUnUcFwsAiNW8wvNm6O5qBxBloDDpjluNFBEs+vZhQMjbL32tHpWdGDttGF+VGvN7R5h3q5mCnu2GeOe9/Nhq3iPM20pR8RZb6DILNEGkzNh0BkJcw28j9VIRwRQc9xzKtXR18UWxzVQBgSz98C2cwG2f74PO2YeRMmhtTi96CJGPeqB9PfTuJ6/A1kCDhOed+DPqRJIV59G+fF9CQQq2T8fzi0z4Dv0C5izO1ElaWNNv8mFK9bM86rRPYg6lCt1SW+com32OP8xpE9fdpMOs9/y4c+v3Jg12o95E3y4YvW2uQ6rVEoCsNTEoowZm0LjSStGPk4y4yMf52A660q6B7mRNmHGK37ojtpQqzPjhotJuIubPBxKZLo4Yk3MCiY8p1prRpWkEKX5J+DcuxSWte+h+vhPceQ4NDcPPTqxeP1pF74aqUfhr2dTOtT1p1ai5PD3MG6cASZ7T5tvtmS46WYRMrR+uEe9jhxN414Ixo18jEC6O/qe9mxryiCmJcx4xY/RzzBY84UHR351osnDIWRo28Tl4Y8yuLDBmsJ511Oo12pRr2mdjiHdY+P/6Fee4FCrdyfsvfnzSw+EO+yoo6yEWPpEYgWEyjhiDX6ARa1GDevupaB+fwfX5WdxrWAHruVtaSECS/2Yf/ssaFe9Df+prahVStGgvzUNpi2NC0gHxX4bhj/KoERiRs8uHMpkZtSoo4h97vpv3Ng8t22NJM1XNEdu7raQavM8KziJJgWxdDrUqRSoVbSt3vnAj05+Vdq0YRycuVZ+wkuEWLX6sN+RhFiOM8cgWbMR45+jwe6ZTUpk0xDoSs5OqNedwNaZxXj1cQ90G4/jhwkq7Ps6H5VHvod/12z49v8Az9E1qBAmb6i9VfDyG+kTv8t6nQmuHGvKRP5/+/tRsNXGEyeSugrpTTi+0olJvUhwMzErgD53swkD5NqCSM9moLh1NwIrJOkzTqIhxGrQahCLkFaDOqUM1ZICVIvz2/Uhl0/1okdnQrCPh7AIisz4/XNHlFiOALicIzBsnAHr2vfQEBPae/YcQp+7yBc39ilXUkJlf38eWQIOg+/3YfTjRvzxQTY2frwPnw86E+6s/mc7kpMSq1CG3C0cFk7yYMwzUfkkNliIzUZEsHGOm4+gL260o2cXDsId5OjbtdiFyX0DYGIaJGqSFBK2BbwALGydhhUhFiNSgRGpIKgqOI6qgqPxyDuMypwDqC441u4PWqkw49u3vfyXOPxRDgU/78fVvL9wo3BXSiv0d+4OFP56DqHsXdj3TQEmvuDAJwOM5LG8LfBu/QxnFyzCxBdNqBBeQJ2aWETdUWtceUuqdqpYrPvKjRmjfLiwrvV+UIswufDfAYRIA+9nMeoJBuPC+tzeH1zY+4MLgx5gMGt0VG+LOOKfjfRjYlYQrz/HxHUffTQoAP2xW9P5zIXrymJTVpmAOk6GoUQ6fgQlJ1ah9PhvKD2+kkfZiVUoP7EaVee3t/iGwWIL/IUWfn9dSKcHl3ME/hPr4N41D4Gd/8PlC+tRdWoPRj9BNLCyY3tb1IZmj9KjR2cWzN4fsX3mQXzUW45B9wdQJhLyv7tCnlgoWK0yYfTTJJA4tLzl3Kb9vBVDHmRxcpUDgx9gYc9OX7zY2u0WN90s/rb7YTtnjUPz4y9ZKc7meW4c/TXxb8gScHBeuDVTZcpkpF6/tQvSZ7/lQ+4WIypUNCrVRgiYPfPA7pkNdncUJfu+RdmhJag+sy7tm5XLDGGxlMGAbh7UnVqBa3k7cPniTkhXn8HMIQbe7PfqyuLVx9zY9b9CXE9Kph2oPbUC9Kq3oF0/A58MtWDhu15sX+gCI7RgyEMs5k3wYeei+CrL/t3YOI1n23cu9OqaWWNHA2VCr64cHOfJRRr3QjAlsRposhk+oi3V0Ta48yVghHI0UMaUox9vulk0pJhM2FYsneKNq8TtSJSHxdzaNEPxkqFHZw6efG3Ux6o69hOqji6LQ83x5ag9uQL1F7ZGX0wZ4Tu1BYq1P0L6+2qof18F7fq9xGE7sh89OrMYeC+piR7/vAN/fiyGbPVpsIcPJCrV2X/AvWU6XLu/Q7Agn5/Zft0ZxL4fo2H13h/IgNahDzPo3omDv8CCCTHSw5zxXgx7hImLan6b4YF0T2ZH2uS+AexbFiVqOmJFSkkaTa645U+xCwlCBgcq1QYEhTI+HXbTzfIrdDsCkt02jHqSieu66UhUa4y46WZRq20dsdSHbBh4P4sSKSGX4FL2WlzKXoNL2WtQc3I9LmWvxaXzf+LyhfWoP/sHrOumoObEz6g/uxua9SfRuyuDD3pZeHwywISa03tQ8MtZXFh2AUveUmHkI+SO+jt3C2pPLEfpkWWwbP6KyBCPB8nWqNPRL6aBMiJQLMP7/Zg4pzaC3UtcfMFa5Og78ZsTU/onqvhn/nCgeycOxhQDbBX7bdg6340Fk7x4N6a8mCm2YNjDTBpi0XGrVhppMqfLXyRFuZLCFas3gWx/231ocrOoo2yoUun4wXLtwdov3fh0hB9rvjRjy3xXh4/artGacc0ZaFN7/WtPM9iz1AlfoRaCGwXbcenCLvS9mziU9ed2YcTDXlSd2gPjlqOY0tPKPzZ9gAnefYdwNWcHDs/Lw3tZNgy+3x+O3NxYNzUPeQs+hey3meS9NNE8YkhPFgdVKMxw51ow9j/E8ox/OYiB97Po143FuBeCOPhT1GJFVnKQ/yfi37dv+6A+ZMO7vYMJS4vIpGM3et/FYu2XiUr3is886NeNRc5GB3I2OuI2WdjOWTHqydT7ByPLobgUmYUSGXk8pDciKJSBEatx0x2fE7zpZsMrQuzwFEiSShAtIVhsxpEVegh3cZgznoVkd+bW0HymZYe/wehs86rjep0JX471oXsnDoIN08U4uTAHvbsSh/ftF+1Y+IYafe5iMPc1DfJ+zsa3Y7V44xnSMt7nLgafDqSx/M2d2DnzD/7C16riv/DmTnWNhsLQh6PKcP9uLHYucmH8y0F48y3wFRA/58J6B0Y9yeD154LYMMfED2nr1ZXFvmVOKA/Y0K8by5c4n/rdGVb8GcwZ78Oe751Q7LehtplzHBFv3bnJnV7Ffhveeil15UVk0VNLxGr+c6K6O1Cu0KFcSaHB6EywbNedQdRRNtRojSiTa8FJlC1at2qNCWu/4jB1qB9z3vLhr2/Tr19xXrCgR2cOve8ii5qmD/ej910sJmQFQcd0W113BlOOQc8UhlMGCDZ+IsJHfSyY3N0K567DMG49hr/z/kK/e4Loe3cQh+eeQfdOLJx/zQK9cRbKi8/HMfS1p5ikuazIz0J6IyqVOtRRVox7IchHj2u/dOON54K8gnziN0KQSb0CCOmj5r2etqGO4nDZQlaRqA7aINxpB1NswdShAbzyBJPxltML6x145QmGF2+/HOtD3hY7PHlEg4lNdCdYivBc1NjVvbEoV9KpiWVMTI/UaPTwFkpQItXiktmNqzZfwiq7m24WNToL/EVylMo0ZBKMjkYDRTZPVGmc0B6x4dxaB97pGUSlwoxKBVHp9/3gRLDYCHeuGeYzFmz91oVlHzpRo6FQItVCcYDoVabTpGo2Yr2bPBwqVVHRurVdWI20CcdWmiG4lv8XmuNq7mZkCTgcmX8WB3+04s0X09dQJVN8swQcqjRG+Itl/FauDwYGoDyQaI5FO23ofy8b1xoVQYUyurnLcJrDkiluvPE8IfO2Be5Wh/8RcCIzDCetWPM/D4Y9wmBCVvqqC3+xPG5Sc2uIdcnccqqlgTKG52NQYCVKBIVKXE4SJNxwMbw/V601o1JtQEDoTPBLl0whWt6wR1h8+TqHvxZwuGQm0sdliwchg4Of47r4fQ/63M3i9GpH+OaJ7x/tew+LxZMzbwX7eIgDgtCZVSBYjdDZPxA6uwahc+uQJeBwagnpov2mDR05WYLoVOMIvn3bx0+RKZGYcfRXJz4aTCLJ5kdX9IJRfLK6Rmfh65r+icVDccQKF7+l2uyajljt6c9rpE2oUunBSZQoU+h5QjRHPU384JGPBfBOTw/638tBtt+JcoUeJTIdOIkG5UoatXorrjkCCa8vV3rwyQiS492x2A7VQRrValJZ8W6vACoVmQcJWQIOgorDS0DwPcqPLEP50Z9QcWIVsgQcgicPtVkrSUasnYtcmDmK1HH160ZayKozGD0Um08MhtuomjwcGGHqKtYGyoiQnqBGQ4EVKeDKE8GTL4avUAJfkZygUAJ3ngiuPBHcYTAiOWo0FP/6BsrIV1U23+zaMrEYXHO0f4wAK1HyBYLXnUG48+Pr3yJdOpF/12rN6NWVQ63GhBoNzetLEVwyu/G33Q9HTjFqdGZcdwbDLV8sVn3OYshDHHrfFbWAve/i8OEgH5ZPNeHoCiUMp2QwnBbDfE4E+0URSmVqhPRG1Gpo9OrKQcDsmQtm71wwe79FcN9CBPcvBXt0BdZOz8Ok7iRC86RweJMhf4sdU/oTK9Q86pHuIe9nP98+1bhcruHvukq1AaUysnY3RNvRYHSi0eTC33Z/gs/SFkTa3y5bPMQyUFbU6MyoUNEokWnAiJRgREremgaKpPAXSREokqJEosDfdj+uO4Oo1ZAlm62pymygjHDnFqMxvCauycOBk6qTSgHNidVIE20ptt2uUqlPIBYjUvI/Y0QqBIpJF1AwPG7Bna8DK3HCnc+AOsmhYBsZHjx3AodxL0RTZz27cBjxGIcJWSxGP8NBUH56HcpPr0fZmQ0oO7MZZWe3ovzCblTkHUaN6ALeeI5Ju4vYnm3FlvluHAmnHs6vc2DOWz44c0xJRbZMMvCRUYaVSh0qlXqUyrQokRJTHqt+J/M/rtp8aDS5EKJJortcqefHCt1wMWDFStTpwheZjmkcUehQLlejVKZCsFgGVqxEuZJCnd6KkMFO9kSHp9y1l6wt4brTH1dNetPNolyhT0vKZMRqpE34dCSRgw7/4kQDZeJJFEvW684gKlUGBITKBMsWC/sFUn/vzBHClSuCr1CKQLEcQaEc3gISiJTIrKinWQhqRNkgOI8a0QXUiC+iRpKPWlkR6lWylMQql5tRuI1YoD++cPOdw8ZT1owrGRsoI1iRAo6cYgRFSlwJL/luydJcsXrhLyZRGivRhFMqya1BpMz2isWNunYKlLG/JxZ1OgNqNBQqVTpUKMgglaBQBneeiPeJ3HkifjaGt1DGD2Ahq+g0KFNQqNISHemaI4CbblL/7swpzmidcCNtwpAHWXybZK9Qvc6E6cP8mDfBy5PkssWDy1YvfIWyOJ+LFatSEqtUriVWMw35Ii6BoJEyICVoY0pi9b2HxcpPPdg4h0Q8CyZ58U7PAFZ+6sHnr/pT/vG1Goo/VhKPHQYhgx1lCgplCh0qlHpUKLSoVGoTdJ0qFdGNPAXJ16I00iaUyMgXUaG8fQuLqnXtrx9vDSb1CmBKvwC+GOOPw6cjiOUKCknK5YrFgwaDgycEGz4K05Hmb7sf1xyBtM+5bHHjitULQUsaUCyxIpP7RjzGYMeixMTqt+948U6P5FvWo3ePAZfMbtTpLWDESvgKJSlD+HSI7NsJpnDgS6TEya/qgOK39qBSY/xHidVIm6A/ZkuJCAGu2nyoo2zh8eapiRKLGy4G1VpTyscj3T2cXAdBS2b2jefIKtpRTxJhMdVU338abJhYVak211NWNHnYjHYj3kqUyvX/OLHSoUpFgRWrcN0ZRI0uGkSFKCOq1VRK0gSKyRyPUrk+5XOs2QXEB8sVQlCvT13y0UibUKEww3XRCtdFa8azFP4J1OsNpNOHSrwxQhSxEu0Zw9NRYESqfxWxGmnSu0kU9sSbLhVpgkJlWC+zgxWr4S2UJjwn4k9yEk3LFutOhDOnmFeVb/dn8RSQ2QsdubquvfAVycOOemLeMxWxImOYmkfF1xwBVKoMcOWJ+RQUqXnPMM/WHIEiMz4Z4W/VpOR/CrV6K5o8XIvpHn+hBJxEcUsXR0ZIXv0PZwrSIbIcINm1T2mxwsTy5IsRFCrhK5LzjbjxGQA7giJVYpdOWdiHaqDTl+GO/Q+DP79y45UnGLzyBIPCv25BvXgbEBmCFus/JEMwPPgiFiGDHaUyXbtliVg4wsRKN5+htWje+tUaRKo0mBSTZFoiVlCoSPp4xAo2eThcs/uJxQpRprjukU9G+lGlM6E6zfD72Il3lQoz34Gi2N8xlY21lAlF+VpIClvX31YuJ2JoaQYLoypVejhziuAtlMYJhm3tAk4GT76IHDui1g9RiUUDZcIPH3jDPZtt/3zVGpK/rElRehypAE3QpxR63n8qC48MjYsIwyJ0REQV1FMm1FFEtTWdtaJKZ8KyqW4MfYQBlZ36zvhmnA/v9Q7ErRlhhOR9mjdAxn1BLfzhVhmNgnwN8vLioRbqUJ/BsV0mJ/pWZYpO7PQXz4gyua5NpbmpiR6e9tfGnTSNNCFU33tY7P3BiZ2LXPj27bYnta85ArjhYlChpJLOv6rTGlCu0CXRpzw8sWIDpjqdASVSLV9xQayXDII6yoxavRnjXw5AtNeGMo0RjNqIggMWvBKutVrzPzfcORaUaAzwKQ0o1RjAyk18GfHuJfHrNJKlFur0JmiEOp4otUmsYVGBNo5M4kItCpuRrEyT3h+q1pjCjqkaZQqq1RNTIs0EpWn2CLUWTR4OZYrW+1ghvQlThwTw0WB/+KKb8NaLQYjSTFdOh0gg0byMulxBoVSmTlkxUh6uni2V61EqTbxhI+5HqVzPd/cIOLURfqUR8ye7cfRPK5xyGjYpBfEZA8wyGlVKM46tIPU+p0/q4i7ytNfdPJEG3MvCl29JSiyVUJ9ggYQF8R+wnjLxj9FiKs46BVUG/jFRQXpLVCLVxH1pzasAWkJso8Q1RwAhgx2sREPWwuQJYc3OQ6BYikpl5kf0FaunTVWZwx5hsHgyeZ07l0yTOboiWjRYqSTHlreg5b+xVkvKjy6Z3eHKDwO8BRI0Nqv5uuYIhP2oqGjNiFJHkY20CZyYaIqu3GhrnsAmo0GLKaz/3oaF05w4uNGMPvew6NWVhTg76sRmCTicPqFLIMiYl8hAieaFZiHKBEoUT6j8PA0sUor/tztmIXeN3sj/vC7JkRf7eJUuvRWqUGj4lE/sCPFM0OThUKM1o0JJp0w9xeJvux9VGhMqVBTK5FqUSJSoVGrjIq5KFcmfVaky/yz/G+PDys8IqX6d7sGgB1h48+IDklJZ9CZqaTZEJL2VbK5onY5GmUyNChWNqzZfAtEiucQKFYUKpR7lCvJ3Vig0qNcbwYQDocqYv0+gFuqRl63Hhl9N6NmVxZBHg8i5oMWfv5jw+n+ilaMRYpkkVIIVGfJokD8WQ5QJtJiKI1RBvgZOeZREkkIdT7RYfyxyFBbmJ7dK0qLoUZnJxYmUvGR6Mb2F5Kjw5CXuAKxS6eDKI46442IRfIVivn79hiuYlHSNJhdCeiNP8pYi1QgChdFp0t07cZg1OnXuNfJ3ppsOU6el4z4XK1GjXKFNOVO2Wk3Bky9CmVyPqzYfrjuDGVV1RNyOKqUZghFPRucJ/DTXEkeI7p1YjHyMwZIPyZGXfTb+TizVRMl16rgOa38xJVg0n8qQ1GHPDz8eG/WZJVRa4tTFHJecumXBsY6ytU71NpGlRinveilxxF15IlRr9Dx56sPVDbUaGmVyDfzFcpQpqLijmA2r3Zyk5ZkIA+5joTtqhb8gszn1xJqklkgiVQn+YnmcFb7hYnDZ4oa/SIZqTerXhygj6nSkbJr8nRRKZToEihVgxEpUKGn4w6NDvxxLCjkFy762offdLH6aZ+UvNn905WvgLTJj7kdO7NlGQZQk9C/TGqEsTjwibbL0WpBfGSUlEyaJXU63aJEiv6sgP/45pF6LQo3OQr68mNKbTFTv6ND89BrRdWcQ1+x+Pn1RkaKiNFBMKk4ju3XqtDRuuJgW504d+IlMkWmkTVg+1YPDvyQm+ysUGr7aozJsDWOLKiuVWpQr9Hy5zRWrF1esXt4okIYKNT/xJ/I9XbZ4UK7Qo1yuaZNo/OpTQayaSY5vwdiX/Zj5tjOBGMnAZmAlKrWZfyBhQfzR5sqAWNW6qK8ViOkmueFi4lbOXjI5eQU+E98mQoR0EwkbaRPKwnpOk4dDSRrRs1ypjzseGmkTuHBgUZJmfnqshUpmrUokyrjjJ6K/OXMKUaczxB17rEiBQLG0RR2tREqaN5ofd6xYjSqVPqOGlX3LXHjzxWgJtkBYoIOoUAdJoQ6yIh3kReS/kkIdRIXRC5+fp2lzR0wqxEaCzZHudZHPVRTji4X0xgTLFHFuM5EOrtq8CURIhsj8qCYPl7YAr8Fgx3VnMF7z0ZLB/KEULfdTh/qxZR6Rbi5ucGD68ETfimhtWnBSbdLGikiRZKQTJyItZGqBIv5gbPHfFasXlSo6bmFBc2yY7UbB1qg1FiiK9VALKejFFIwSClYp+S/5NzG3NWkU+PbCLqMSSJXKeY9F82M0GSLdy2Wy9MQqjaQ5RJlpV76wk1+WLuIMz3ho/vMKlSH8mYgD7crToUSmAytRY0BMffrY/wRbnM9QoQjfODINGKEMnESNGp0ZIYMDl0wuPsLjpK1LJ0WI5c4XgxWr4ySYy1YvWLEa1c1OgQRi6cUUTFIaDjkRP1m1AX6lAU65AU7FP5ORr6fikclrVDFia+zPA0IFrtl9/JFIwuD04mS11pw2zZEMIQOpvU/VtXPJ7CaNHc1+HnuUzRhFmhH63M1hct/wXNF9NpRK9Rk57ZHu65QtaeENE6k+Yyr4i2S85fPki+KU91iUyqLvm0Asq4SCW0EjoDKgRGNEhdaIUo0RQTXBP0GstpIxQiyPMhoolCtpXHMEcMnsRj1tazFiqlSSiKm6BUU/gYxqPX/kNH+sgTLiqs0XN9A2pDegXKnnyf7VGyx6dOYwbZgPnMiMjwf7MGOUA9+8GZ3219KxHDkKU39HNiJFtMERj1SDRur0mzwcvAWkBstXKEOJTBuniSUQyyvTgVXRKNMYUKU1okZvQpXOhAotwe0mUDroRBTv/yV7vE5nwA0XE9cy3hw1etK2VaNpfcqFDS+/LG3Wdt9AGfnhH2RFiSJ6lISPlVK5FRVy0g4fKLRgzLMMRj7OYMyzfgSEPlSoiPgaWTtTrTXHBRb8Kjtl8psmskyKFbe+7LtWQ+G6M4gQbQcn0aBSbeDfK5I7rFTGf18JxCqVa1CloVCrM6BOT7LooRjcbvKkQ6yu5ZIn/4KvOwNJj6RG2oRqlb5Fi5YO9TpDUhE2RBn5VviIE3zNEUCZXINSmRoNxvgsRbmcSBzqQzYoD5DhJSMeYzH2PxwqVBwfid50s6jTkpvEX0SsiDuJmEu+G1tYamm9tfLkh4XifAlYsZoEIUYnT6oKZeJNmECsCoUWtToa9Xrjv55IyaAs1vO6VtKoNYXo2UAZURu2Vqlm0meCSB1S7LCQkN7A+yiNJlecLFGhojCpF4ePBwfSdoG7cyxY9qEHhdttvLVz5YlwxeolBAtLKcleWxvW5Jor/Y7zIDwzWQAAIABJREFUFiz70BuHdV+749rn68Mr5a7YSKuYM1fEH4mcRIOKJMl0wwnS8he7FUNQqdLxpGprNentBu9rJQk2AuFjKPZvq9fRaDQ5w3dl65LUyS4i0bSi5KwNSxKMKFFlv2L1gpMG8OaLwZTbTyM4s8aJvvcQB39KfxaG08TPia1OcMYkfiPgu2Vijs7IvNZzax1Q7LdDsd/OLyXo0ZlDfnjsd1k4IGDFpHk1IqByEg1Kk8x+1xy2oldXLm74biNtgqBarb9jCRUBnSYV5AqvZfMVShEUytBgiHZSs+3Yx9ecLLErTUJ6ctdXNZNCKpQ6hAwcxr0QQPdOHNgM996Uy8wo3m7lpxJfd8YP9WBEcl5Ti7TFlcnjLYtif3TDVywqFWaUSSPbWW38QqlGk4vvOg+KVHERYAR7v3eh911s0oEhghoNFZ4pcPsJ0lY00FGrZZHGSwaVKm3cRbjhYlBP21rsZazSGVGmNYJTG1p0ESrC1QuRKClyFDbvEvIVSrD/Jw7zJrRtsNnaL4ka32B0plzo1OThSM9gs/Lq797xph3hXSolgUT2OjtKZVp+SEgdZUspBA95KHVeVVCnpVGnN9zx5DJI9CmtVpOHLAIvy6AxtiomZRRbcJjuNRG/JJISilisumbEYkQqvPpU8k1eLaFSQSY8L58WvZgNtAn28D7DoEiFKo0priYqFlkCLq7aNxkaqNQr+pJh+KOpS6QFdTqy8JKQ6/YTpK0who/D4iSFgE0eLqPJxZVJSMVXrraQA61QasP+CNn+TqLNeOsZKJZiyRQymXDr/PSjHZtj3zIbvh7HwV8YvXEikkOy+Vt2GYXCfA1OHtOhqECLQQ9mtsCpZ5fMiLXyUw/W/i/1QDlBtYZClZpCrZZGvT55icudgAgBzNJE9fyqzddiXVaFNkqq/DwNnwGIJMqLWqhcbaSJIx+KmYZTT1n5SX2MOHa+FYfXn+OQt7l1w8zM5+L7JMvD5TClMVFnbJ3cz99Z0Lcbi4EPkkLMEztb/j2jn049vbFKaUbORgesZ60Y+jCLkjQNzIIymRplcg0/LvpOPA6r9VFiJas+DRkc+NueuliOi6kry8/TxH0HDTFaWSCN0BqLOh3NT7m55vDHVQ14C6RgRHLsXRbAtKGZNdTasq0Y82zisVMarpaIHSNQkB8tHMgScKjWGSE6a8DYl8lQkB+/SG+5Px4cgFNOJ5xeFQozhjzE4ps3fRj1ZPK5s3HECgrlYMUKlCs0qNFQdySxKmOsTVLiaUl3SnMntFYfn3MsyNckzVWqhRGtrHV6V5lciwajA9VaE6/OOxU0Ci/K4crTYdSTHD4Y7IerMP37zBzlx5k1Le8PrI25wd54MYhjK6PCsEVKYelXJLL8dKw36cmkPmTDtDdc/A3mzrXg8M9OfDgwgIH3szi3NvMdhgJWokSJVI0KhTaJxfr3dTmnAu8LJcn5VWmIEh6JlOopExTNihOL8rUp3QBNuHZfURSv4zTQpBZfL9JDWKBtMYEeW9xoPpcP09k8rF5mQq+7WCx6z5vyps4StNzV3UibIAqXfO/YYMDIxxMtnFVGY9NqsoZm6GPBhCF447P8+GN59Lvs2ZXFnLe80B3NvFc0shNIUKVO5mOZ0WgI419AmtYQy5TEx4pUTDbSJpTEHHsRBFsoYJQUkQsmKiTkc8ppSAq1Ce+Tl6eBL0XurlQTtarFBVrU6EmCOC9Pg5yLGrzZ0wfpnkQ5IGezHdPHuXH6JHHCQ6kuaMyRnSXgkk6gbqRN8ChoHNhNkc6q+6IOfWTjWG6uBnM+dmDq6y78OMeKz17NrIexQmHGZ2O86HUXi7eyAhA00BY00GY0xCrvBjMaDRZcMt7+aS2ZQhfTEWSWpS5/iZRfF+Zr47qEMn3vZBAXauPKupsHEGUxR3Wk7Y0Jr28zighBjx8mpTLiXTb8/rkHtRozGmhirXZvpZEl4LBiiTml9OFVkurbGRNd+P3z9DqZX2XA/l0U3/mes9WGdQvsmNDfyxOz7z0sTh7ToXtnDiXK1BFxoNCC0U8zGPgQgxkTnZg0mHRrCy6ZbLgcxiWjlcdlkw2XjbdmEdCtQmzFa7ICwNja/EzrviJg1cZmZNKhvFkbWqT7qDCmHj9WvI31ASO9eoXbZZj9sR15eRoMfyKIoQ8z+H6KF5N6BfDr5y681ceHKSM8+P1rB3p2YXF4PwVxkt6DyPtPG+eG+lDLq01KNUaM6+nDljVG9OjCYfiTQeTkaLB7kxFjnmVwZo0dE/r6MHmYB1t+Sc2Dfvcx2LHJgK1/kpU2RUdMOLCLgqCBtuKK2YmrFieuWhy4anaQ/1qcuGJu28Lp24kIeZrrWbHCZ6aWqjkaaFJzn+rx2Og0RJlQHithNAsMIjO8hj7MoM/dLI4d0uHcaS0fbf13gB9972V5C9JIm6A+bUa/+5gEqxj7t814zZcRsT4eEkCPLizWLDdh/y4aR3fTOLbRjCEPs5DtJa8f/iiD40f06J1iibm5wIheXVl8+b4TIx5j+Fn9tXojBHV6E/62uvG3LRFXra0T8f4NiNWjymNEzUgYnkxA7UhEI0xtzP8nl0GqtKQqQHXQioEPMci5qIEoT4eg2oDiAi3OntbhnUFe7P0+Gt39/LkLY7N8cfKHOhzZHjukj/ObWoK/0Iz3+wbiEJsYF++yoU83Fq+9EIDkYKJbNPdjB77+wJFUehC484QICuUoV+pQR1lwxeLCVSvBFXPHLnD8pxCrSUX0GCpNyqcj4VLQcUdfXp4mZUajRKpF904cyuUabJzvRK+7WJw7Swi5fSP9f82d93dc6XnfEXfF0YmTOO0H25FlSe6WrGMn0klsS/bKTiRZ2qKt2l1ql72TINEIohEdIAoBotcBBsAUTO8z906fwQx6I8qgkyB3N8nf8MkP750BwLKidlexf/ge7p6DuXPnvt/7fJ/nfZ/Cl35lkVf/YvaJaPHPf3OOs2/GMr6iRuNhdFREcTHVZ+e+zGgjfOVXF6ktDfDtLx49wN6RhbP/N1+eoa/wSWXLUpfXMlJRh7ujl2m9hV1/lL1gnN1AjF3/8zvvjyIJPkrM8dHELPvh+DMzG58HH03M8ijy6Uid7lij03pY84qe7ukGI8+zi/5psCmFMOi8mSjyWX+37vTytd9YQlstMhH0TdFM8t9/+61ZTL1Pl90tb4iv/sYC7ym+2UCfl2/+zuxTaxA/LbG+/CtCjr/4i0tHZiM2l4b55m+LCWJP+2xWybsnKHzzGF35RXi7Bkl5AmxLYTa8ITa8z19M8WF8hph6nLBKy4cTc5ga23kYFpMiPohN8zCcUGbhTfFhfFr8dyTBo5gopvwoMScmSsSm+CA+w0fxGR7FpnkQnuRB4GePTg9L4mELdjgy++cAX/ciJ1/4ZPMBv/mfRMPhP/i1RZou/HzU5c//zSLnfxzj+pkI3/gtYbX2/CG++u/m+fp/mENd+3QLmXXhey9z6jvfpeb0JSzN7aw6JVKeoGgA4Xr+qpUP4zNMai0kNWY+iM9iamzH0znIXjCBuryeiVEj90MJHkanqT1zhfuhJKrSGjTVTay7gyQ1ZnYDEwzfqmNSSY113O1l0xfhnv2TtVlc9gSeqO7WaD77+sifBbtSkBWbhzmDlWmdmWWbj9/9F0ufavrq0waVf1bYk0N8/d8ukH9RNIsZuBWnKVskCH7tN599rphVf+4qRW+/T9Ol64xU1OPrGSQypCGpMbJoef4eUR/GZ4iPjPNRYpZHsUlMje2MVNzmYWQCY0Mb/3dqibBKS2RIR0duMR/EJrl7rRBNdRMfxCYxNrQxa3CwYHIxqbXw4cQcq04//2dygeiw/lM9nG1JHGlYxn3MP+d53/Ng3ekVXVocXjHo0iGz4Q0r9XzPP8fnb393ifDgZ5N0+PPAtjfEV351kYYqsZ/2+59bpLHGz598fuGZ6dVZ9tZuegtv0ZlXRHtOIe25NxiprMVxt5vosI7x+hYaLlzl0j++TM2pC5hut3LP5mHXH+VBaIIPYlN8ODHDR4kZ/ndyjm05wsy4DalnCG1NEx25RVQcP0fLlXwcrd2su2Q+jE9nsGL3YrvTSdPFHCqOn6f9+k1GKxuwt/YQ6B8lqTET6B/l7rVCTv/9D3jrG9+i7uwVfF0D7EgRcQ/xaR5GJ1kwOZF7htDVNtF3s5zmK/nUnbuGpuYO8TETe+FJHkSneBidZNcfxdLcTsm7J3jtv/4VZT85jeNuN3vBCZIaI2NVDdSeuUzL1XxUpdVYmtrxdQ0SG9Yxa7Bhbmqj7twVTrzwPUrePYW+rplVp8yDUCKDJYsLb+cAQ6U1dOYW03atkJarBQwWV+HtHGTZ5mVbjlBzKsnxv51i2xfgp7VH/3ljzy+KVDakEGu+EEueIDNOP+aeoEhtHvAyMuSlPEckBm7LT/ar3XCHyXK19TJYXEV3QQntOTdovZaHurwGV3sfSY0JW0snd6/dIO+1t6k7c4mxytvEhrXMjdtYtrhZc0psSyFlgWfY9IWZ0lnwdA6gqW6kI7eY6pMXabteiKut9wlirTp8OFq7ac0uoOb0JdpzbqIur8PS3Im/T01SYyY4MEbb9Zuc+18v8c7/eIGGC9eQe4bYlaM8CCcEsSKTzBnteDsHGKuspzOvmLqzVyk/fp6+4ircXSrmzW4WrR6WbR7mjHbGqm5z88fv8+P//m0qTpzD2dbLXjD+TGJ5uwaJqDRMaU0YG+5Sf/4qZ/7nD7n1/lmMDXdZd/nZDyczWLZ6kHuGGa24TXdBKW3XCmm+lEt/UQWezgGFWFFWHSG+/MuLrDlkNr1+tr1+dnyBDHbl4BMQc3xCT+IzINeOLAKQdZ/YSJ13BZi0+cl+Ncl3/2SGL/2yyMOfNYfZecp3xoajZEk9KjTVDfTdvEVrdgG3z19FVVqFr1vFktVDaHCM0crb3D5/lcYL1+jIuclgcSWaqgZMjXdxt/USG9aybPPwIJxg3R0gptZjae5g+FYtnXnFNFy4Tm/hLXzdg6Q8/iPEWnNJeDr76blRRtPFHDpyixgorkRX24ync4DEmJGwSktXfilXfvg6J1/4Hq3ZBYQHRnkQmuBhJMkH8RkehJNM6SzYW7rou1lO44XrFL9zguuv/JjqU5fovnELfX0L47dbMdxuRVfbzJ0reeS//i4nX/get89fxdM5wG4gzsSogdHKJ4nlbu9D7h0motKgr2um8eJ1rr70OvXnrmBr6WTDG8hs1TyKJll1SkRUGowNbahKqmjPKaT+3BW68opxtfdyz+5l1x9jwxvkzN8nqD0dYcXuZsXuZvUQtrzyYxDk2/b5RSMQX4AdKU3AT18UsysLq7UlixrTFW+QJc8Blj1BVr2CfLtPIdbd7CRZYdUYpqY2VKVV3LmSR+WJ8wwUVRDsH2FLijBntOPu6ENVWk1rdj7Vpy5S+NZ7lP3kFPXnrtCRU4ih7g4xtY5tOcqKQyLQP4K2ppn+okq68ktozb7B8K1aAv1qNryBI8RKuf0E+oZR36qhPaeQztwiugtKGb5Vi721JxNp9haWk/fau1z4/it0F5QQH9HzKDbJB7FpPozPcD+UYGLUgOF2K23XblD+3lmuvvg6J174LldefI3Ct96n6uQFqk9dpPrURSpPnKfo7eNkv/Qml37wI1qzC5B6htiWo8RHxhmtvP0EsZx3e/B09OPtUqGpbuTOlVxuvPkuLdl5eDp72ZbCIqpVsOEJkBwz4mrvY6zqNu25hVSdPEdrdh6Ou12sOHzsBWKk3H6mtG6l3H6Rv/7tGS79Y5T+mz5m9DZm9FYWzQ5W7G5STh8pl4+UW2LDLbGR7lmlzIs+XHH1Sa1XWtp2DhFsUxLyuKlgW2mH8LTveOH3ZsiKDGuw3mlHVSaIVfH+OQaLq4ioNOxHkqQ8ASZGDTjbehgsqeb2uWzyXnuH/NffoeSdE1SdOEfvjTLc7X2Zft/erkFGKxvou1lBV34JbdcLUZfXEewfYdMbPEosj5/ggJrRyjo6827SlV9MV34JqtIabC3dxNTjRIZ0DBRXUfjW+1x96Q36i8pJjhmUa8zw4cQMe8EJ4iPj6OuaabmST9mxU1z+wY84/u1/4OL3XybvtXcoefcUpceeRMX75xgqqyEypGXHH3smsRyt3bja+xSZb6AlO5eit39C2/UCvF39bMuRI79t0xtkSmfO/H1HbiGVJ8/Smp2Hs62LVaeP+6E4Gx4/SxYn8wYbjlYXg0U+6s8GuPLDKK98PXmkFecf/ctF/uZ35nj5a0nO/H2cmlNR1OV+EqNHCbYtCX8tPSX2aXL6cUhL6+5T8NNI+4WsJbL8fcPo65oZKK6gNbuA+rNXGamoJ6bWsx8R/Q+WbR4SY0akHhWmxrsMlVXTnV9C69U86s9doTP3JrraO/j71Mg9w9hbu9HVNqMqraEzr5jmSzn0F1Ug96jY8By1WOsuGal7kIHiClqu5tOVX8xAcSXamibcHQNMjBqJDOkYLKni5o/f59orbyrEMh4QS7FYSY0Rc1MbXXnF1J+9TOFbP+HaS69RcfwsHbk3Gau8jabqSehqmpB7h0QUrFi+p0mhq60PX7eKQP8I+tpmmi/nkPvqWzRduo6rrYdtKfzESxMf0WO704n6Vi0duTepO3uZrvxiPJ39rLtk9sMT7Ehh1l0SKza3AtcRLJrsLBjtLJgdik8bJtgfpyN3ivPfneEfvjLPN//zAn/4OeH7fPmXFnnzGwlar4aQuoJMjcmkXBLbXvk5oUisQs4dKcjOY6T6qcTydPSjLq+l50YZbdcLuXM5F11NM4kxIw+jkzyKTbIXiLHpC7LqkFg0O5nRW/F1DzBaUcedy7nczS6gv6gCTXUj4/UtGG63Ymy4y2hFPZ25xdSduUJnnniYKbf8hI/l7uijK7+YhgvX6MovRl1ej7mpA7l3mKTGrBCrmqK3j3P9lTcZKKpgUmM8cp0HoQmmdWYcrd0MFldyN7uAmlMXKP/JafpulOFu72XWYGXOaHsC80Y7a06J3UCMh9EpEmNPd949Hf0E+0eIq/UYbrfQePEal37wKrVnLmFr6WTLFzr625wS4cExDPV3GCyupCO3iKZLOQwUi5cs5RE+2f1glB1J5MZve/1sPYbDliS90FteP5tuiXWXj3mjndlxG/ecEiuOMJPaMMH+KDWnk3zvj+Yz6TF//OsL/OW/n+O1v5yk6WKQiMrGotnButObgZBaIbFbnkMk8wly/TT/zdcpWgRkGW630plXInyb/BL6Cm9hvdPJpNbEXnCC+6EJdv0xtnwi9XVbCrMjR0iOGRivu0PzpRwaL1ynPecm/UUVjFbextRwF1dbL4b6Frryiqk8fo7myzmYGu8yZ7CJaymY0VsxNdyl+VIutWcu0V1Qynh9i4jAhrRM66wZYhW/c5ycH73FQPHTiTVvtCP3qNDXNtFXWEbThWtUnzyP+lYN4cFRNjx+Ng/9ji0plPlde4E4D6NTPIpNPzUqNDemtxu0zI7bsLV00nw5l4vf/xEVx8+hr2tm0exg0xtkyyeuPztuxdXey2BJJZ15xXTlCZnXVjcSUWnY8oZ4FEuyH45z/2fIfUtL1LakTHZ1elmxu7lndbFgEiOH15x+Uh7RsXne5GTZJnouyL0RuvKSZL80zQ//bI4/+VfCyv3p5xd48auTXH0xRGdeAF+nj1W7V5FXP9teJUg4FCA8TS7L3k3yp59fJKsjt4jKExdouZrPUFkN1jsizJ/SmllxSMwro3UD/WpCAyNEhzRMjOixt3TSU1DKrfdOU33qAu05NxmtvI31TidSj4qJkXHcHX30FpZReuwk5e+fofdGGfbWLgJ96gysdzroKSil/P2zlL9/lv6icjwd/UxqlJnDRgfRIS2qkqpnEuuD2BT74QRrTh/TOhNSzwDqsmrqz1zmxhvHaL50ndHKerxdA8i9w4QGR4ioNIQGRwn2qwn0q5nWW9jwBHkYnTpCrDtX8hgsrsTUcBepW0VyzMiKw4fUraIrv5jcV9/m1ntn6C4owXanA6l7kECfmrBqDHtrFwPFFdSdvUzDhWx6b5Shr21G6h5kdtzKrj/Ko2iS/dAnJJYvQMotserwsGxxMmewseqQ2PSG2fKFmdZZ2Zaj7PhjzI3bWHd4Mw1qN1wSSxYncwYrSxY3G94gC+Ywd64k+OGfzfLVf73I7//qQeOSb39hhprTQfy9LuYNMutOiS2PkNctr7Bumx6ZF786y7e/MEdW2bFTZL/0BvXnstHVNjMxamBKZ2FSKyD3qjE1tqEqrWb4Vi3a6kZMDa0MFldQd/YSOT96i9Jjp+jILcLYcBd/n5pJrZlVp0RsWMtgSQWFb/6E/Nfepub0Rbryi1GVVimopiuvmJpTF8h79W2K3znOUFk1cbWedbcY37tkdX8ssdIR2KNokl1/hJRLYlZvRlfbSPXJC1z43ssUvvUe9eeu0pVfwkBxJeryWjTVDYxU1KEqrUFVWo27o495k5P9yORRYl0W+06G+jvIvUPMGmxsy1FiwzpUpTUUv3OSkndPUnfmMnev3aDnRimq0irGKm/TU1BGzelL5LzyFrfeO82gIoGz4zbWXBIPQnGFWLFPSCw/KZdP6Q4os+ENsS1F2PXHWDA5Sbkl7lld7AXj7IeTPIwkM5uwh7HtC7DhkVl3+liyONmSIuzIMewtAf7g1xaxNk9QfWqab/2Xo/38//jXF/mr35rlla8nqToRwdTg4Su/ssiNN2Jk3fzx+2S/9AZ3ruThbOtl1elnxSExa7Ar0WAv6vJ6WrMLaLteSE9BGaqSKjpyCqk+eZ68196m6uR5BoorcXcMkNSYWHFI7IcTzBtt6GoaqTh+hsI3j1F5/CyNF67RcjWflqv5tF4toOHCNSqOn+XGm8eoPnWe8bpmFkwO9sMJtiUxbmNidJyxqnpqTl2g5N3jjFbUMa0zZ4j1SMkdexieYD8UZ8Mj42ztovHida788HUK3jjGrffOUHf2Ck2Xcmm7XkhXfgkduUW0XS+k7XohpsY2pvVW9iPJI8RqvpxL381y9HXNyL3DLJhdSgtrO8aGuzRdzKHm1CVqTl2k5tRFbp/LpuVqvghaLudy670zXHv5TSpPnEdb3ci0zsymN8huJsEyyYNQjPs/w0H7EYvl8jFnsImZgWMmduQY6y4/m25hRUSUGGDN4X2iye+ecq0dWdREplwSSxYX23KMNVcAXU2Ub/3OrLBwbplVu4cFJZBIjHlpzwnx3rcm+M6XZvmDX1s8QrqsvsIyem+UYG5sIzFqYFuOsiWFWXPKLFrcRId1OO52M1pZz0hFHWOVIooaKa9joLicrrwiRipqcbX1ktSYWLZ52ZLCPIxOsuaSCfaPoKluYKC4AlVJJUOl1QyV1TBcVov6Vi3DZTWoSisZLK5EV9tEaHCUlNsvjl0CMTa9QeaNDjyd/QyVVdNbWIa7o49lq5sP49OCVBFBqjR2/RESI3pMja30FJTSc6OM3sJb9BdVMFBcyVBZLSMV9YxWNqCtacJQ30qgf4Rlm5f9yOQR5735cg59heXoapuQeoaYNzl5EE6y4pCIDGkxNbShrW5gpLyWweJKVCVVDN+qZbTyNupbtQwUVdBTUIKm+jaBfjUrdnEcdj8Y40Eozn4ozoNg9GcuXNmTxZTZlFtiRm9h3R1gUmNUpC/KulPUiaYr3J/mdKcJmg4GUm6JNZefLV+YLa+fnvw4J/9uKtON+bDkiUJniZRLYt3pY93p5dhfx/i9XxR9tbL8vUNEh8aYM1hJuf3sRybZDyfZC06w44+wZHETU+twt/dhb+3G1tKJpbkDe0sXrvZefJ0DRIbGmDPaSLkD7AZi4pglNs1ecIJVp48ZvYXokAa5Zwjn3W5sdzqxt3Rhb+3C3dFHoG+YmFrLzLhVNPUKTigpM8mDDUSdGblXhbezjymtUdkPm8pYqgehGA/DE+L/IwlSbj/zRjsxtQ5/nxpXex+W5g7MTe0ZONt68fcOE1PrmDc52fSF2Y+IqDC93dB0KYfewltoawSx5owO7ocS7PhFZ5YFk4PEqIHgwAju9j6cd7txtHZjb+nC3d6L3KMiPDjClNaQOWPdDyfYD4l7fpCWwU9QEbUrBdnwyGIPzOQgPjIuSCFFWHeKuYt7zyBVhpxyiG2fiEg3PDJbUoQtX5htX4C6M0nqziSPOOc78oF8psmWJll6u2PLK5O1aveyF4iIRYlN8tHEDB9NiL2hD2JTbEthlixuEqMGIkNaAv0jSD0qwioN0zoT96xuNtz+jCOacajjMwIxYVV25AhLVhfxkXHCqjEiQxoiQxomtUbu2T3sBWI8ik3xQUx89lFshkdRheSBGCm3zKLFybzJzrpLZi8YE+nTkYSyOFH2w3ElA3YygwehBGtOmWm9hYhKQ6B/FLl3GKlniOiwnjmD2GrY8oXYC8a5H0oQU+tRl9dRdfJC5jhKW9OM1DPErMHBXnBCiSDF/e76o6zYvUzrzUyMjhMd0hEeHCMxZmDZ6mJHCvEgFFPyzyZ5FDt4GQ5I9QmIJQfZ9MisOjzcszqZGbey6QuzLUXYC8Z5GE7yQezZ/RX2FGu17Q2wpRBr1x87Imn2O0+vnBZRafqzwop96ZeEz7UjBcjacPtFVU5YFFBkzrpiSR7FRBZAyu1nyeJi3mRnZtzKlNbMnNHOPZuHlNvPthTifiDGw4jwGY5Aud79oLA8ixYncwY780Y78yYHyza3SCgMxg6+OyIczYeRJPvhBPeDcbalEOsumTWHjy1fUPx9JCGkJO2jBKLsBaLs+mPsBWLsBWPsBmJseILcs3mZMzrE/evMTGnNLJgcrDqkzPbApi/MujuA1DNEz40yit85Qd3ZK/TcKMNwuxV/n5o5o4Mdf4wH4ST7Con3gnE2PEFW7B4WLS4WTA7mDHaWrC5SHpm9QJT9UJyH4TgPIxM8DMczL8MnJVV6cbc8MmsOj+LAS+y48+2FAAALZUlEQVT4Y9wPxtnyhZVUnmcnNab9tG2vny1F3nYDcb74C0usO4MfO8lVjEEJZKLMNYdIs85+McquHCRrR45ktH5fMc3iIUwIxzI8wV4gKvZ9fCE2vUE2PAE2fUG2pXDGX7ivfDaDYPTgWpEED0Jxdg9dJ40dOcJeIMZ+eIKHh4iS/ux+eIL98IQgiT/CjhxmLxA98n1px3dHDrHlU+7PG2JLCrMtRzKk2fSJrNiUJ0DK7WfLF2I3INJ/tuUIay4/8yYXtpYuWrMLyH31bSqOn6O7oAxzUwfBgVHmjA625aiyx5dgP5zkQWiCvUCMHeW7tnwhNhWyivSiw883qlipTyZ/TxDLKysjTjxsSeL7n7dDY5pYh/2m3UCcP/38wk/tXZre0E1vpkZUok5xrDLCrhwiay8Q5X4wLt4epXD1fiAiFlZZ7MMn9kcQSR4hw/1g9Ki/EAgr14k/33XSb7JShf0gI28TBwhPiPA888ZHMve95fWLoxGHj1WnzLrLT8oTzEjDfjjBfiQh/g2LzAgRUU6y5RNFpNFhHdqaZhouXOPay29ScfwcfTfLcbb1Eh0+8MV2/DH2AnHuhyZ4EEocKUJ51jO6r9RpPp7q8qmJ5fKx5hD+24bn+RIZD2TQf8gZlwkNxvnGf5zL5IXtySGGSiYYKpk4cq9pa5Vy+thwS6jLfXwha4l5Y4A9OURWyu1HQISUGx4Rnu76FVKkLcdTcchqpBf5sGkPhLmvWK6Pv9bj1wkfVGM/bgkVa3j0+8QDEP6GjyWL+wBWDysOH+suPxveoHBM5TA7fvFCPQgLoi1Z3YQGRzE23GWguJLGizmUHTtNa3YB+ro7hFVappX+5hvekLCEckRYXMVqf9xvux+MKosZyqS6pI9KftZUl8PR3IYiQ/dsbrblKGsu+YlGxYd3yHfSvpEvwLY3kCHVPZuXlFum58YEL31tmm2vn0BvhD/83CIn/26aky9M84efWyTQG8lEkRtuKTMbsvL4hNKbXnxn1rLVzYLJwaLZybLVxYrNzbpLYtsXEAt3qDr6cdw/ssDPcEIDYWHFPuY6B9d6TB4yn30M6e869H17spizt2L3sGh2Mm+0MzNuY1pvYdZgZ97kZMnq5p5dkGzTG1IkLc5uIM6kxoS5qV1J8ymg+XIuTRdzGCqrwd0xwKzBzj27jzWXnw2vkLotb4gtb5BtX4g9Od2W4Om/bc8vSLXl8bPpEY6ySHnxZ8j1XKTyP75FIJz3JYuLLSnKqt3HhlsMrEwv8mEibvsCbHkD4h7cglDpYeFrTh8Fb0xR8HqC09+Z4mu/sUBsKJg5L4wPiyLW09+Z4p7Vz7rTx6rDQ8rp40dfn+eLv3BQsZM1b7QzrbMwq7eQbmm0Yvew4ZaP5vZ8BglkP0/syiFSLollq5s5g51pnZnkmIH4iJ7EqIFJrYlp5YhoSRlBl/IE2ZajbMtRosM6xqoaaLhwnebLuXTkFNFfVIGlqYPosI5V5ewt5QkKuP2kXOJoI+USswoPJ9o9jl05yJZHfCbllFh3SqylP+v1H5Gej3vOhzdHN71+1p0SK3YPcwYb21JUdDe2elh1+DJkPUIqhdTLVkGmo3CT/eIMX/7lRS59P8mqw8uK3cu6S1KcdD8bHj9XfjDJ7/3iwQSNF78q+jWc/+6hPu+rdnHOtGQRFmvZ6uaezcOq3cOqw8u6oqGbykn3x028+qfA4d3jNaePRbOTaZ2FSY2RiZFxYsM64iMGEmNGJrUWpvXWjAW7Z/eR8gTZ9EWY1lvxdA6iqW5CV9uMqbENe0u3OKLSmLln97Fi97Fs87JkFYuwaHaxaHKybHGxYhNvfEpZhC1v4IjkbSqkWnX4WLGLBbtn9yoyLR067PVnjl2eJpF7GWt1cAwza3AwpbWwLUVZtnrE+inEOmzhhLXyK1s3TyOWsHzLVjdrTh8LJgfbcox5o4Nlq4clq3AvFi1uFkwuZg0OPB0uhkplXv2LOQaLD6q6stJamXJJrDl8rDi8LFvdGTlZMDu4Z3WxqnT9S2+6/VMT6ok3WAqy6vAyb7QfIVVkSEtMrWdi1EBSYyKpMZEYM5LUmJgzOlhxSGx4xczkab2V6LDuyN9P64SVEw/Tyey4XTlLNTOpEZjWWZg12FgwOVi2iqleKZeckbsNj8y6QiqxQAdYtnpYsXtZc/hIOSVSbjlDsqcVVuwpv3XTIwiyZHaLe9Ja2JIiLNu8rNi8rDmlTJrLYd8qvV/1LGItWjwsml3Mm5zMGuykPEG2fBGmdFamdVam9TZmDXbmDA5mDSJdZ85g49Z700eJlX7rxc3KrKflxGhnUmtmRpHIJYuTVYeHDbf0VIn8pyJb+qFt+YLcs7mZGbcwMaInphakCqsEsdJWKz5iIKoQbkpnYdHiUeQt9BQEWXXILFndzBsdTOstJDUm4iMGYurxDMS1TUxqhT+3aHGxkikJk1h1SMqBurB08yZXBgtmF4sWN8sWNys2oRJrDl9GXh8P+/cUGdzwyKRcMnNGQfZpnZUtKcKK3SdSXKQg24dItXPIL9vwiMHoTyeVsEaCOA6mdVbWXIHMM9nwHjybSa2ZmXEb80YHt96bRlVyIOdZhxcoHUKuOyXu2YQTvGQWMnlPcexX7R7WHpNIcSb16XOtPwnSRxIpt8yS1cW0zkxcrSM2rM0QKz4yTlJjYkpnITFmJKYeJzqsY1JrYd7kYsUhs+p8OpatXuaNTqb1BxkfSY35SYwJSzilsyjSIVwKgbR8igWbGbczM25nWm8TOe3KWz9ntLNgcrBkdioq4RWZn77gIRzskotN3wNibfrC3LP5Mv7Q4Tyq9EboprKtsO6UWHX4mDc6mUvD4MgQatYggp8ZvY1JrSVjsWbGbcyMC0s2O25TrLWd0mNTtF2PZvbEsg6/CbtyMGMuxYm2lPH8V2xuliwuFs2Op0rkpsd/JH31/4sMKpZ2w+NnzSWxYHIwqTERG9YSHdISUWmIDGmZGDVkrMmk1qJYLT1JjZlZg4Mlq5dlm+8JLFm9zJtcTOttwkfTmJnSWTPESGNKZ1UsmZ7kmIEZvYUFk5NFi0vZ9jgg1bTeypRWSGlizERizERyTEj0pNbElKISs+NWFk0Olm2eTHbBhtJ9MeWWWHdJLFo8B8TS29jwCElftgmJXbKIf9edUqa6Z8MtK26PKLad0VuZHbdlyCSuZWXFIbHq9Aup19sEdFamdBaSYybWXH5m9DaSGnGK4e4Q0y3+7otzlB2LHRDrmQt3KJlsySySySa1ZqYPS6TdQ8olseULsi2FMgR7IgH/M5bNtCyIkFuk6CbHDESHFGINaYkOa0mOGYXJVkiS1JiJjxhIaszMjNtZMLuP4LBUCVKZiA7rmRg1MqWzMmd0HvmbmXEbyTEj0WEt8RE9kxoTswYbc0YHc0YH84qjO623Mqk1kRgzEB8ZJ6bWEx0+QGxYT3xEnyHotM7KrMHxMb6QW1iYcTszehspT5Alq1fIaxoWF6tOX6aaJ+WWWHd6WXN4WDQ72PCKqa9TOjOJUaO4pyEdswYH6+4gSxZP5h5W7FLmhVt1yqw4JIWAMuvuAHPGMMGBCL2F8Y8nlpCaQykVykbcotmpDPFxcc964BusOrysOX0ijcIlkFLwLNn8LIi1oRBrweRgSmcmrtYTVws/K65WFnrcnllgYWGE9Zk1ODJkEpIgpCAtVUmNOVOCFlPrSYyZhCyk3+IMUccJqzREMxbSnBkiOaWzChnVmEiMClLF1XrF1xOIDukyL0R0SEtMrSOhJF0eJvFhzBmdmXud0dtYdwe5Z/cybxKqMmewMWuwsWR1ilpFh5cVu4dVp5d1t8SWHGJbDosSL+koxPGXmJOYxro7yIoj7fi7WbZ5WXP5mTU4WLZ6SXlCzJtcLJrd/D9hYGBEl/dftAAAAABJRU5ErkJggg==;" parent="1" vertex="1">
          <mxGeometry x="840" y="237.5" width="100" height="100" as="geometry" />
        </mxCell>
        <mxCell id="41tTYhLOXa8K0barruc2-81" value="" style="shape=image;verticalLabelPosition=bottom;labelBackgroundColor=#ffffff;verticalAlign=top;aspect=fixed;imageAspect=0;image=data:image/png,iVBORw0KGgoAAAANSUhEUgAAAeMAAAEjCAYAAAABn2mMAAAgAElEQVR4nO3dPYgj6b3v8eJy91ocZrDG2AcNZhexdxnEYnu1g89ZbU0wMsNhG78wDXcCncAgw1D0mjMgB2s0YI/YCaTFwbYwGLHBouSKDm7QOClFi7LboZILHShQqFChwv8Nep9SVakklVTvpe8HCqZHL/+SVE/96nnqTRMAAJAoTUTk22+/lW63y8TExMTExBTj9O23367DuNvtJrg9AADAaVL5SxgDAJAQwhgAgIQRxgAAJIwwBgAgYYQxAAAJI4wBAEgYYQwAQMIIYwAAEkYYAwCQMMIYAICEEcYAACSMMAYAIGGEMQAACSOMAQBIGGEMAEDCCGMgQbO+LpqmiaZpYphJzw2ApBDGSKdZX/TvQ2pj0nXRjb6Ys5n3a03baw1TtjzLx3Nn0tfXdfX+znc6SubDeM/vZPT3fP8ARIQwRlqZhvcKfmOF399c2dtf6/W4z+fag1LTDIkiKzMfxn5+Jz2a7w7IE8IY6bQrJM2+GPqOQA4jjF09vqiCMldhbP8AM1MM2/cXxagCkCeEMdJpb6DuGEIOHMbRD09bnyKvYSyukYVMfjggPoQx0slPoDqGSG1DoQHD2DQ0XyEyMw3R7T10Te3L9ny29A3d8VzDnG0N410h7Xxs5vH/hpgyE7NvOHr3urHlu5iZYuj2efOxK8Dr+9sRxu4NmrvRDd25v1nXRffYx5/I5wJiRhgjnXwFqn0oVBdrfR8kjH2+1hHYG5NtXjbmc/t0TBjbQ279/7prI8HnkH6YYewYpnbuM3bui99fL5HPBcSMMEY6+QpF53CylQVHh7G9p+YOVFtVRxiue3KzLcHkCB/bULg70MMLY9e8ufbfrt/P/v0ZVo/e/jn2DtHvCz3d2PgeZ3397v/tQwgz0zYvzu8+kc8FxIwwRjolEcY7e7deNd1HCXs9NtsaMlvnX4KH8cawsOdjtjBzFLHN1759vb6Oetd97Q/3M2Qf2+cCYkYYI50S6Rn3xfTsxTpe4GvIeR2824drRfwFUHRhHHLP2BV8ju/S3dudmdI39K3nKAcLY3rGyB7CGOmU1D5jd9huJuH2i1w4pu+D1/58j3lJNoxlT892+1C95+s9epv2oXhVd+8+48BhHMLnAmJGGCOdDj2a2v6coKc2uVbkzg7f7nDd4AjvtPWMbWHp2l++/ahwlz1hvFnXtQHleTR48DAO/LmAmBHGSKdEzzN2Hy1tD9EtvfHtBXY8398+Y2cAbf/cB4eWbUPBOLareEDP2DCdNXedChUojMP4XEDMCGOkU9JX4NoxXO0+OtpxUPD3+0Ltz3eet+x9YZGNHrD7HOq7w4c3jsAOK4w3Jl0XXTf29yJ3nWfsdR64e6TAtj932xXPEvlcQMwIY6STz2tTe17wIaRrU28frt4M0o3JmaxbD/rSbcOozizbUUMPc5j6sP23x/1OzqOpd5+jHUIYh/G5gJgRxkinVNy1ybVS3zha2H0FLk109/mz1tNN5xW49LsrcDmGVDfCYbb3NdvC2HDNg/eRxOZ6hGHXkdC7UsvPXZs2vg6Pq2jphphbvotEPhcQM8IYOFH2K1tt7Fo99EC1FMnr50K+EcbAiXKedmQfFYjvRhlRyOvnQr4RxsCpyuv1m/P6uZBrhDFwyrZcCWvrvu+syOvnQm4RxgAAJIwwBgAgYYQxAAAJI4wBAEgYYQwAQMIIYwAAEkYYAwCQMMIYAICEEcYAACSMMAYAIGGEMQAACSOMAQBIGGEMAEDCCGMAABJGGAMAkLBQw9g0NNE0XfqetwudSV/XRNMMMZ0vst1vdNtrAQDIr5DC2BRD08QwTTG2BOqsr4ve74thD+NZX3Tb82d9XTS9L+QxAOCUhDxMvSWMZ33RNUNMMR1hPOvrohnm/tcDAJBjsYSxaWhyl7mbYaw7nkwYAwBOT/RhbBq23m94YTwajaTb7VrT3/72N8ffTExMTGmfRqNRwHUu8qLbjTiM7w7qck93z/EepnYd4OVT8HkHACAZkYfx5uPRHMBFGAMAsiqkMFanLdkmz1Dd7PnO+rrtdcf1ikUIYwBAdoXcM05OlucdAHDaCGMAABJGGAMAkDDCGACAhBHGAAAkjDAGACBhhDEAAAkjjAEASBhhDABAwghjAAASRhgDAJAwwhgADvT8y+98TYBfhDEAHIgwRtgIYwA4EGGMsIUaxqahieZxP2PHbRLdt1Y0DdstFHfdC3k3whhAXAhjhC2kMDbF0DQxTFOMjUA1xbAC+O6+x7p6wqwvuu35s76+5T7I/j8IAESNMEbYQh6m9gpj1zOMdRjP+rpohnnQ67chjAHEhTBG2GIOY+fjs76+7iX7ev12hDGAuBDGCFusYWzvFYsEC+PRaCTdbteaer2e428mJiamqCa/YbzvfUajUbBVLnKj240pjDeHpLcNUxvifJY/wecdAPyhZ4ywxRLGpqFtBLGIcAAXgEwijBG2kML47ijp9SlKtlOYZn3RtS2Pieu0pyN7xcHmHQAOQxgjbCH3jJOT5XkH0oCA8Y/vCmEjjAGICAFzCL4rhO1kwpjGA+xGG/GP7wphI4xpPICI5KeNxPE58vJdIT0IYxoPICL5aSOEMbKIMKbxACKSnzZCGCOLCGMaDyAi+WkjhDGyiDCm8QAikp82QhgjiwhjGg8gIvlpI4QxsogwpvEAIpKfNkIYI4sIYxoPMoCA8Y/vCllEGNN4kAEEjH98V8giwpjGgwwgYPzju0IWEcY0HmRAXgKGGoC3UMPYNDTRPO5nLKZhu02i6/Fdjx2AMEae5SVgqAF4CymMTTE0TQzTFMMdqLO+6Lb/m/V1172Otzx25AfZhsaDLMtLwFAD8BbyMPVmGM/6umiG6fmcXY8dijBGnuUlYKgBeIsljHXnuLQjjLc9ts9oNJJut2tNvV7P8bd78tt4dr0HE1NSUxzLLzXirzEajQKuc5EX3W5Gw9ht37yzJYssy0tvjxqAt1jCeHMo2hBzz2OHIoyRZ3kJGGoA3iIPYw7gAoLLS8BQA/AWUhjPpK9rtlOUNEeozvq67TFnz3fXY8d8kG1oPMiyvAQMNQBvIfeMk0MYI8/yEjDUALwRxjQeZEBeAoYagDfCmMaDDMhLwFAD8EYY03iQAXkJGGoA3ghjGg8yIC8BQw3AG2FM40EG5CVgqAF4I4xpPMiAvAQMNQBvhDGNBxmQl4ChBuCNMKbxIAPyEjDUALwRxjQeZEBeAoYagDfCmMaDDMhLwFAD8EYY03iQAXkJGGoA3ghjGg8yIC8BQw3AWyxh7Lwzk+sWi6ax/bEDEMbIs7wEDDUAb9GH8awvuu3WiLO+Lpph2h7jfsbAPnkJGGoA3hINY0cwi4iIKcaRvWPCGHmWl4ChBuAtnn3G9qFoW/jO+rrozjFrwhjwkJeAoQbgLZYwNg3tbvj5+1Bej1IfH8aj0Ui63a419Xo9x9/uyW/j2fUeTExJTXEsv9SIv8ZoNIpknYvs6XajDmPTcA5F24atvYep10Pah9g372zJIsvy0tujBuAt8jDeOCjLNERTgcsBXIAveQkYagDeou8Zy0z6umY7fWk9TC3iPu3puF6xCGGMfMtLwFAD8BZDGMeDMEae5SVgqAF4I4xpPMiAvAQMNQBvhDGNBxmQl4ChBuCNMKbxIAPyEjDUALwRxjQeZEBeAoYagDfCmMaDDMhLwFAD8EYY03iQAXkJGGoA3ghjGg8yIC8BQw3AG2FMA0UG5GX5pQbgjTCmgSID8rL8UgPwRhjTQJEBeVl+qQF4I4xpoMiAvCy/1AC8EcY0UASUl2WLGumqgdNCGNNAEVBeli1qpKsGTktMYey6jaL9HoqmYbuF4vrexocijJGUvCxb1EhXDZyWWMLYNDTRvVJ21hfdFsCzvi6a3pdj8pgwRlLysmxRI101cFqiD+NZX3TNENPzId3ZSxZTjCN7x4QxkpKXZYsa6aqB0xJ9GDuGoe8mlb+zvu7qMRPGyJ68LFvUSFcNnJZ4wtg+9Gwaon3fUw4SxqPRSLrdrjX1ej3H3+7Jb+PZ9R77pjhqMKVvysuyRY34a4xGo/DXucikbjeOYWrHfmBTDFsYbw5Tew9p77Nv3tlaRlTysmxRI101cFqiD2NXb9dxkBYHcCEH8rJsUSNdNXBaYghjce03dvZ8Z31962OHIIyRlLwsW9RIVw2clnjCOAaEMZKSl2WLGumqgdNCGNNAEVBeli1qpKsGTgthTANFQHlZtqiRrho4LYQxDRQB5WXZoka6auC0EMY0UASUl2WLGumqgdNCGNNAEVBeli1qpKsGTgthTANFQHlZtqiRrho4LYQxDRQB5WXZoka6auC0EMY0UASUl2WLGumqgdNCGNNAEVBeli1qpKsGTgthTANFQHlZtqiRrho4LYQxDRQB5WXZoka6auC0EMY0UASUl2WLGumqgdNCGNNAEVBeli1qpKvGSdi43/3pijGMZ9LXPW6T6Li94vrexocijJGUvCxb1EhXjajmz0mtl22TYboe91ovu/7fdW9632IJ483PqB8bNBGKLYxnfV30fl8Mexi7fsBZXxftyB+GMEZS8rJsUSNdNaKaPyd32H4fXNZ62E8Ym2JomhjH3Iw+tjB2bzi4OoUpEE8YWx/edITxrK+7tsJMMY7sHRPGSEpeli1qpKtGVPPn5BW29nDdF8Z34b3R03SMeDqDb9bX1z1Uw7CFsbnZWXM91re91h4dpuHq3TsC3iOM1eOzvuieowJB6h0nljA2DfVBNsPY+SP6D+PRaCTdbteaer2e42/35Lfx7HqPfVMcNZjSN+Vl2aJG/DVGo1H4K1wJGsZ36+y7dfOuMN4y5Ovu7ZrGOuRco6GmYQ+yfWG8ruUYRd14nnt+/Q5Tb/b2j6t3nG436jC2/xAhhrHbvnlnaxlRycuyRY101Yhq/py2h7GvnnHf2HMckKvn6MgD8ez97uoZez7mK4zt/+ccVnf3cr06jofVO07kYbzRnbcdqOU9TH3cWD5hjKTkZdmiRrpqRDV/TtuGqdX/7d9nvHGsjztwHW8dQRh/H67be72bn8HqCJqGa/+4jzDeW+840feMHTw+IAdwIePysmxRI101opo/p82gcg4d+zmAy7XfeNeR1XuHqY8YwjaNPYHofZCaYYrHELqPMN5b7zjJhrE4d+ZvDHccgDBGUvKybFEjXTXiEdKpTe4jqt1D1bb3nDkOijLFsHXAtj+2Z9hY8xpq3v4Z12Fqf8wQY8vxTYfVO07MYRwdwhhJycuyRY101YA/64PNrP/YPkye4nqEMQ0UAeVl2aJGumrAp42easTnEEdUjzCmgSKgvCxb1EhXDZwWwpgGioDysmxRI101cFoIYxooAsrLskWNdNXAaSGMaaAIKC/LFjXSVQOnhTCmgSKgvCxb1EhXDZwWwjhjDZSVQPrk5XenRrpq4LQQxhlroKwE0icvvzs10lUDp4UwzlgDZSWQPnn53amRrho4LYRxxhooK4H0ycvvTo101cBpIYwz1kBZCaRPXn53aqSrBk4LYZyxBspKIH3y8rtTI101cFoI44w1UFYC6ZOX350a6aqB0xJLGDtuk+i+X7HjVltb7oHpA2HMSsAtru8qL787NdJVA6clhjC235Ny902oZ319M6x9IoxZCbgRxtTIcg2cltiHqe33gpz1ddd9IE0xjuwdE8asBNwIY2pkuQZOS8xh7AzbWV933qT5gDAejUbS7XatqdfrOf52T34bz6732DflpUZepri+q7z87tSIv8ZoNIpkTYvs6XZjDGN7r1gkWBi77Zv3vGwtx1EjL+L6rvLyu1MjXTVwWmIL480h6W3D1IY4n+UPYZytGnEgjKmR5Ro4LbGEsWloG0EsIhzAdcI14kAYUyPLNXBaog/jWV9069SlzdObHKc9HdkrFiGMs1YjDoQxNbJcA6cl1n3GUSKMs1UjDoQxNbJcA6eFMM5YA81LjTgQxtTIcg2cFsI4Yw00LzXiQBhTI8s1cFoI44w10LzUiANhTI0s18BpIYwz1kDzUiMOhDE1slwDp4UwzlgDzUuNOBDG1MhyDZwWwjhjDTQvNeJAGFMjyzVwWgjjjDXQvNSIA2FMjSzXwGkhjDPWQPNSIw6EMTWyXAOnhTDOWAPNS404EMbUyHINnBbCOGMNNC814kAYUyPLNXBaCOOMNdC81IgDYUyNLNfAaSGMM9ZA81IjDoQxNbJcA6cl+TA2Ddtdm9a3UzwUYZytGnEgjKmR5Ro4LcmGMfczPtkacSCMqZHlGjgtiYbxrK+LZtjvYGyKcWTvmDDOVo04EMbUyHINnJbEw1h3JC9hfCo14kAYUyPLNXBaMhvGo9FIut2uNfV6PcffTExMTGmf/v73v0e2fkW2dLupG6Y2xNz6iu3imHdqhFcnrJ5FXr6vvNSIqw41kDeJhnGcB3CFgRrh1SGM81kjrjrUQN4kG8byfQBbpzYd1ysWyU/DyUuNfXUI43zWiKsONZA3iYdxWOKY93/84x/UCKlOWGGcl+8rLzXiqkMN5A1hjERwNCoArBHGSARhDABrhDESQRgDwBphjEQQxgCwRhgjEYQxAKwRxkgEYQwAa4QxEkEYA8AaYYxEEMYAsEYYIxGEMQCsEcZIBGEMAGuEMRJBGAPAGmGMRBDGh1ssFjKdTpOejcDG47EMh8OkZwNIFcI4IqvVShaLRdKzkVqE8eEuLy/l4uIi6dkIbDqdSrFYJJABm1jC2HGbRPf9ik3DdgvF9b2ND7Vv3pfLpdRqNZlOp1Kr1SIPyuFwKNVqNdIag8Egkz2l1WrlCNz/+NNInvzha/ndX8eRhfHt7W3k39VyuZRyuSzj8TjSOhcXFzKfzyOtEbW4AnmxWMhqtYq0BhCGGMLYFMMK4Jn0dU10lbizvui2AJ719c2w9snPvLfbbdE0TS4vL4+ocJjVaiWlUimyAGg2m9JqtSLdqBgMBlIoFOTs7CzUlX+5XJaPz/8sz7/8Tp784Wv5wb0fyQ9LH8g7hXvy5A9fRxLG5XJZrq+vQ3s/t+VyKYPBQJrNZmQ1lE6nI+VyOZJAXq1W0uv15OzsLNLvSyT6QL6+vpZqtSqTySSS9xe5+wyVSkXK5XIs6xXkV+zD1KaxDuNZXxfNMO2PinFk79jPvJ+fn8v5+blUq1VZLpeHF9ljtVrJ7e2t9ffl5aWcn59HUqdcLlv/HgwGcnV1FWqN29tbqVQqMplMpNVqhbryn06n8k7hnnx8/mf5cfkj+Y8/jeT5l9/JL1/8Rd4p3JP659+EFsbL5VIuLi6kUqmEMOfbTSYTKRaLsYSxSHSBrJbZwWAQWVBeX19b8x1lIFcqlUjauV21WpWrqyu5vr6WSqWSi90ISEbMYewM21lfX/eSPR4/hH3eV6uVYyW1Wq2k0+lYf3c6HUcg2wM0iOvraykUCnJ+fi7T6TTS3nGtVpNarSbFYlEajUaoW+ZXV1fSbDZlMBhY/xf2yr/++TfyTuGe3Pvxe46e8M/O/ij/+sG/hdoz7nQ6UigUIl8xj8djKRaLoQ9Tr1YrKyTtvdWwf5OrqytpNBrWaEtUQXlxceGY77DrqN+5VCpJp9ORZrMphUJBisWi3NzchFJjPp9Lu92Ws7MzR91SqRT5iALyKfQwtu8f1l2pau8Vq+ceG8aj0Ui63a419Xo969+q8b169Uq63a786U9/kvfff9/x/GfPnsn9+/flF7/4hXz44YeOx4JMr1+/lqdPn0qhUJAPP/xQHj9+HOr7q+nt27fy8uVLefPmjXS7XXn+/Lk8efIklPf+4osv5MGDBxvv9+zZM/nJT34SSo3nX34n9c+/kR/c+5E1ZK2GrX9Y+sD6O8jv8PLlS3n9+rU17w8fPrS+rzCmN2/eyOPHj+WTTz6RL774wrHsNZvN0Oo8evRInj59Ki9evJD79+/LixcvHL9JWMvXs2fPRNM0x3f06tUrKRQK0mg0Qvs83W5XHj9+LA8ePLC+t1evXsn9+/et3+vY6dWrV/Lw4UOrfTx+/FieP38ub9++lc8++0weP34cyvy/fftWHj16tLFeefr06UHtcDQaBV7nIh+63Zh6xptD0tuGqQ1xPssf97wPh0MpFosynU5lPp9LvV7feM319bX0er1APabVamVt6dt7FcvlUjqdjhSLRanVake/v9Jut6VYLEqxWNzoAd/c3Ei1Wg3cw59Op1bPYT6fS7lcdowoqP8Pgwpb1UP+2dkf5dPffyU/Ln8kH/22FahnrPbj1Wo1Rw/MPSISVK1Wk1arJRcXF44eseohh9ELu729tZaf8XgstVot9B6+fZ+q13ek2tCh7K+5urqSXq/neLzZbIbas7++vpZisSilUmmjjaxWK2k0GqH2WlerlZydnVm7JtTf9hElwK9Ywtg0tI0gFpHID+BSgXx9fW0N404mk9CGpUVEGo2GdDodmUwmVmDaVy7L5TLw0ZzD4VAuLi5ktVrJ1dWVFItF6z1vb2+l0WgE/ky9Xk8qlYqUSiVr5bItkI81mUykVCpJsViUn/78V/Lr1/90BPLDyhP59/98G/gArlqtZv0G9Xp9I5CDriyXy6WMx2NpNBrW/43HYykUClad29vbUI7inc/n1tCnPYg7nU4oIaaOAN+1G+cY8/ncsYGihqLdy1KxWAxlf746jmKxWMhisZBSqWRtGKvjH9wbA4eaz+dycXEhFxcX1q4nFcCaplkbZ8Axog/jWV9069SlzdObHKc9HdkrFtk+78Ph0NqP22g0pF6vW38HZe+1KJ1Ox7GSPpTaX2vXbDZlPB7LfD6XarVqrQiCHEltX5Gr073UudH2A5Hm87lUKpWDV/zT6VTa7bajXrValfl8LsvlUn5w70fy6e+/cvSQf/niL4FPbVosFta8q32gw+Ew1B7Y7e2tlEqljd/5/Pw88ApfsW80np+fS7FYtH5v1UMOi9dGV6fTcewPPYZ7H7o7kKfTqWM0KQj1GZSwD95aLBZSqVRkMBhIq9VyhL0K5LOzM06jwtFiG6aOmpp3dWpGr9ezGot9yDpMt7e3jhWAyOZK4VDL5VKq1aojkAeDgZydnTmCWK3IjuE+B3owGFgrzPPzc7m6utqYh0OVSiVH+E0mE+v9ms2mtZ9YHUkd9KIfy+XSMTqwWq2kWq1aGxjVajXU4UOvg47cB70d6/z83Do4T+1GqdfrUqlUpF6vWxs1h1gul47XXF5eOv72CuQwQtIrkMvlstRqNSmVSqEe7NZoNKRSqUilUpHLy0trFKlQKASuc3l5af226qAwOwIZQeUqjJfLpXV6QbPZlGKxaO0PU4Ec9qkg9Xrd0TBVbywIdyCrYDk7O5PFYiE3NzdSqVQCDU2vVivHKSYid/vc1DDbYDCQer1+1AbMarWyvnu1H1oNHaqe6vMvv5Pf/XUs9378nufFPg4J4+l0KqVSSTRNk/PzcyuA1ZHsrVYrcEguFgup1+tSLBat91KBrAJSjS4EraN6pO6AnEwmMplMjurx9Xo9x3LqdSS2GkUK+3xZdyAvFotQdhep97W3816vJ61WSy4vL6VarcpisQjl/O9eryftdtsRxOp4EUWdtUEY4xi5CuN2u+1YkQyHQymVSlbjGI/HgRqKOgikWCxaQ7Dqyl6q11KpVAL3KNQ+O03TrIavzpdVK/8wDg5yr5DVCns6nQbeZ6hWlPZeXKfTkVKpJJPJRH79+p/y05//Sn529sfAPeNWqyXX19cbvRNVT+1vP9ZqtZJarSbj8djq2dmHWsM4LUf9vrVazREcYe+3t/eI1e+vQrHX68nl5WUkF5JRy0NYF+BQy+hisbBOKVTt+/z83HEqW7PZPOrArdvbW2k2m46NO/vQvQpnIAy5CmP3eZgiImdnZ6FdEEPtLxqPxxs91+vraysQgri8vJSzszNZLpeeQ9Zhswey2rAolUqBvzMVWu7dA4PBQMrlsvzg3o/2BvG+MJ5Op9aGiwqYKIYLx+OxNWIwmUzk7Ows9EBut9vSarWk1+ttnKs8n8+l0WiE8nm8NsCKxaJ1YZcor+jWbrdDW5YvLi6stt5qtayNZPW91Wo1uby8lGazedSFOBaLhdRqNcdGrxqBaTQaUqvVuMAHQpWrMO71ehunMHkF9DFarZbjspBRBaV7v6M62jWuQA6L6k1s218f9EYRq9VKKpWKdTCNvYeiAjmsi0ioz6J6yOpo6mKxaG20qJ7aMVqtlmOIO6qLhyju33symUin0wn1LAO38Xgc6nW77QezqbbRbretA6vURtOxy8BwOLSWqZubG+uMCfXeYV08BFByFcZqZVmv12U8Hkun0/E8v/gY6tQVe7CrQA7rCFoRsS6rZ+8F1ev1yK9DHeX1jr0COUgY397eynA4tHqrYQ/lbmM/0v3y8lKGw2FovVVN0xzffdjDul41o/q9vUR1+8dms2kFrjqmIgxqtKNcLku1WrVOW4xygwWnLVdhLLI+iKJerwfeV+jm1WNRw8lhUkfT3t7eWgdrxaHT6YR6yoydCmT1ewQJY7WidJ86FXUgq9O+qtWq1Ov1UJctr3A89mCtQ2tGfZnQKKmN5HK5HOpGscjdMmUPX9UmgSjkLoyjFvUQotJut62VTFxDYqvVSjRNi+z97UETdJha7b9z71uN+s45apgyiiNm4+6titztew0yeuT3VqGr1UqazWYkn80dmlG8f6vViuSmL4BCGB9hPB4HviBCXIbDoa8VlRpRiOs2cEHDWMQ7kLOu0+nEutKfTqdSKBR8Pdc9BDyZTKTRaOwdflb78LN65PH19bUMBgNOWUKkMhXG8/l86wEZ7nlnOOlu5emnp6VWlscM86krg/kRZs9YUYEc9PdeLBa+3yPtw7p+L5W5XC6l0Wj42phRdyCzt7+LiwvRNG1nGAcJ4kOG6aM8ngKIQ6bC+Pz8fGujts/7eDyO5V6mx1CnQfl9rl/j8dixory5uXFcxH5XjWNXlupIbz/D6M1m03Hd3rDCWCScFXGtVjCiC+kAAAjwSURBVPO1MaJOa0urm5sbXzeTUKexHTKqsO2qY9vOSQ+6bJVKJd/Llv34Ab8OuQEGvWJELZVhrC5paW8A6tzObSsZNe8qiI/ZN1Wv132dX6vObz3G5eWl1Ot13ytLv0egbltR7vrODllZTqdTx3ejLsfpZ0i12WxubBSEGcaHUDfbsP/darV8Beyxy5a6WIyfYJnP574D8urqyvF7X11dSblc3htMxwSxckggt1ot38uW/ajxm5sbz2XGi9/neSmXy77a+3A4zMxuKWRXasPYfeEGr1OL7LrdbqCVpd/9wOpiFn5C0n0RkF6vJ2dnZ3tPVzl2ZXnIivLQXov7vdXr3adhuW1bWe4L4frn38jPzv7oa94OubKaGrq3f+5msymapu3cQAqybF1fX/s6SMp9I5B9tv3eu0aFggTxYDCwrjTnVffYI/HdB0WqUwb3vZ/fIFYH3dn/brfbvn4TdYBaGkfZkC+pDGOR7YG87UhmtRLys7JUV7lS73tzcyPFYnFvL++QIBaRrRsUu66THGRlOR6P5fz8XDRN2xvI6oIch9gWyNuudrVrZbkvjP/1g3+TX774y955Ur2WQ4YRvU6D2jXcekgQdzodx/uqmxXsu7XeoUGsHLIBFmTZUpeDVN+zV90g++23BfK25eeQHvFkMnG8t1puy+XyzuWGIEacYgzjmfR1j9skmobtForrexsvl0vpdDpSKBR8BfJvfvObg/b/HBL0IocH8TF1gqws1f1ux+OxdZN1+4qy1WoFPkXq5uZmI+y3BfJyudw5XKpC93d/Hct7H39m3dv4+ZffyQ9LH8gP7v1IfvfX3d/DMUGs5lndFMFPIB9ySs622xHuOpDu2CAWueutquuY7wvk+Xx+9EVE1DnW9u/6+vp6o+6x5vO5dU3pfYG8WCwOvm+wu93t25AkiBG32MJ41tdF7/fFsIfxrC+6LYBnfV00vS//7/tLHfZ6Peuydu5AczfQQ+f9kKBUQ5vHrCwnk4mUy2Vfdey3MjyU/UpEIuHdwEC5ubmx9rG5w159l4fMu70X/N7Hn8kPSx9YgVz//Bt5p3BPPvrt9hVukCCuVqtycXEhnU5n44b37gPNjnFIIKvbOx6zbPV6PTk/P7eubuW1ARbmWQW1Ws2xgXV9fW1dJjIItWwNh0Pr4jDuQA5aQw1N28N+WyCrm00QxIhTPGE864uuGWKK6QjjWV8XzbD3k00xNF3+639PHPuL/Fz8/5B5V7c+q1arUqlUPIPS3fiPOWJXXc9aXRHMXSfIfY/dvM5PDesuUiKb18wOGvbuYeltgez1/scGscjmLS7dN7wParlcSqvVkkqlIpqm7Q3k1Wp19IUwarWaYzlV5wyHtQHmpjYy1DJ97EaEm3tDMuwL66iN6Xa7bV3W0h3IYd7rGjhGLGFsGprcZe5mGOuqWyzqcV3e/t+FFAqFjXutVqtVa+U2Go2k2+1aU6/Xc/y9a3r69Kk8fvxYut2uvH37Vh49eiSPHj2St2/fSrfblZcvX8qbN298v9+2SdM06z296oQ5vXnzRh48eCBPnz61/n733XdDe//PPvtMPvzwQ8f/vf/++/LgwQP54osvDn4/exA/ezWU//np/xJN0zYCuVAoyIsXLxyvbTQaR3+HzWZTHj586Pi/Z8+eSaFQkEajEfh7evLkiXzyySfWb/Dw4UN59uyZ9fiLFy9CWba63a588skn1nKspocPH8q7774byTKmPtPTp0/l0aNH8vLly1De88mTJ/LkyZONZev+/fvy+vXrwO//7Nkzq12oZaBQKEiz2YzkOzpkGo1GkaxzkT3dbshhPOvr1j5gvT+72yds9X79hXF/JtbpJqpX1263d56GcMi8u3t56g5AYd52T0Ssm9sr8/lcisWio2cWpvl8LrVaTcrlspRKpVDuVqWoc4rVxpD6zo6lgvjXr/8p/1Isyb//51vPHvJ0Oj3qHNJt1M1E7Ls5Li4u5ObmJpTf3j1cv1wuQ+1529l7fKvVSm5vb0O7MUqc5vO547adaldCWMPEg8FgY9So2WxutE8gSaGHsZtpaLYDtJwHankPU9+FtRpKLhQK1oX5/XwQP9T5mPbGXq/X5fLyMtT9RJeXl44NivF4LO12O/J9UYdczOAQt7e3UqlUpFKpSLlcDjS0p8L4099/JT8uf+ToKf/057+yAjkKaj9kpVKRWq0W6s0x1Hnk9mCv1WrSarUiuXDEYrGQer0umqb5vkhGGqkrqVWr1cDLlpvakLS/Z61W46pdSJXIw9jJ9HUAl72vPJ/Pfa1gDp33i4sL64Akry3nsLRaLSkWi1Kv16VUKsV6E4Co3NzcBD4wSAXv2Rf/R/7bf/8f8uzV0Pq/j8//LD8sfeD7PONjDYfD0K85bL+N52QykeFwyA0GfFqtVjKZTCK5lK06G6JarVoH8AFpkmwYi3NYe+O0pwMcM++qF6OOSI2KumIXW+Jr9p7wz87+KP9SLEn982+soepPf/9VJFfgioN9VKder+diAywPVquVDAYDX1fdAuIWcxhHJ8vzforcR1N/9NuWvFO4J5qmyXsffxbZ5TABII0IYyQiqWtTA0AaEcZIBGEMAGuEMRJBGAPAGmGMRBDGALBGGCMRhDEArBHGAAAkjDAGACBhhDEAAAkjjAEASBhhDABAwghjAAASRhgDAJCwmMJ4Jn3ddj9j+z2MTWPjPsfHIIwBAFkVSxibhia6V8r6uJ+xX4QxACCrog/jWV/0LfcpnvV1Zy9ZTDGO7B0TxgCArIo+jB3D0HeTyt9ZX3f1mAljAMDpCT2MZ33dCl29P7sLY/vQs2mI9n1POUgYj0Yj6Xa71vTVV185/mZiYmJK+zQajQKvc5EP3W4cw9SO/cCmGLYw3hym9h7SBgAgr6IPY1dv13GQVogHcAEAkFUxhLG49hs7e772YW33YwAAnIJ4whgAAGxFGAMAkDDCGACAhBHGAAAkjDAGACBhhDEAAAkjjAEASBhhDABAwghjAAASRhgDAJAwwhgAgIQ5wvjrr79O/JZiTExMTExMpzZ9/fXX6zAGAADJ+f8he+wvP0SUkQAAAABJRU5ErkJggg==;" parent="1" vertex="1">
          <mxGeometry x="880" y="236.98" width="93" height="56.03" as="geometry" />
        </mxCell>
        <mxCell id="41tTYhLOXa8K0barruc2-86" value="" style="strokeWidth=1;html=1;shadow=0;dashed=0;shape=mxgraph.android.rect;rounded=1;fillColor=#207585;strokeColor=#33b5e5;fontSize=9;" parent="1" vertex="1">
          <mxGeometry x="950" y="240" width="20" height="10" as="geometry" />
        </mxCell>
        <mxCell id="41tTYhLOXa8K0barruc2-87" value="&lt;font style=&quot;font-size: 3px&quot;&gt;download&lt;/font&gt;" style="strokeWidth=1;html=1;shadow=0;dashed=0;shape=mxgraph.android.spinner2;fontStyle=1;fontColor=#ffffff;align=center;verticalAlign=middle;strokeColor=#999999;fillColor=#999999;" parent="41tTYhLOXa8K0barruc2-86" vertex="1">
          <mxGeometry x="0.5149999999999999" width="18.805" height="8.570000000000002" as="geometry" />
        </mxCell>
        <mxCell id="41tTYhLOXa8K0barruc2-88" value="" style="strokeWidth=1;html=1;shadow=0;dashed=0;shape=mxgraph.android.rrect;rSize=0;fillColor=#444444;strokeColor=none;" parent="1" vertex="1">
          <mxGeometry x="270" y="560" width="330" height="30" as="geometry" />
        </mxCell>
        <mxCell id="41tTYhLOXa8K0barruc2-89" value="About" style="strokeWidth=1;html=1;shadow=0;dashed=0;shape=mxgraph.android.anchor;fontStyle=1;fontColor=#ffffff;" parent="41tTYhLOXa8K0barruc2-88" vertex="1">
          <mxGeometry width="82.5" height="30" as="geometry" />
        </mxCell>
        <mxCell id="41tTYhLOXa8K0barruc2-90" value="Update data" style="strokeWidth=1;html=1;shadow=0;dashed=0;shape=mxgraph.android.rrect;rSize=0;fontStyle=1;fillColor=#0099cc;strokeColor=none;fontColor=#ffffff;" parent="41tTYhLOXa8K0barruc2-88" vertex="1">
          <mxGeometry x="152.07" width="82.5" height="30" as="geometry" />
        </mxCell>
        <mxCell id="41tTYhLOXa8K0barruc2-91" value="" style="strokeWidth=1;html=1;shadow=0;dashed=0;shape=mxgraph.android.rrect;rSize=0;fillColor=#33b5e5;strokeColor=none;" parent="41tTYhLOXa8K0barruc2-90" vertex="1">
          <mxGeometry y="27" width="82.5" height="3" as="geometry" />
        </mxCell>
        <mxCell id="41tTYhLOXa8K0barruc2-93" value="Login" style="strokeWidth=1;html=1;shadow=0;dashed=0;shape=mxgraph.android.anchor;fontStyle=1;fontColor=#ffffff;" parent="41tTYhLOXa8K0barruc2-88" vertex="1">
          <mxGeometry x="247.50000000000003" width="82.5" height="30" as="geometry" />
        </mxCell>
        <mxCell id="41tTYhLOXa8K0barruc2-94" value="" style="shape=line;strokeColor=#ffffff;direction=south;" parent="41tTYhLOXa8K0barruc2-88" vertex="1">
          <mxGeometry x="234.5675675675676" y="5" width="17.837837837837842" height="20" as="geometry" />
        </mxCell>
        <mxCell id="41tTYhLOXa8K0barruc2-92" value="Update Data" style="strokeWidth=1;html=1;shadow=0;dashed=0;shape=mxgraph.android.anchor;fontStyle=1;fontColor=#ffffff;" parent="41tTYhLOXa8K0barruc2-88" vertex="1">
          <mxGeometry x="69.57" width="82.5" height="30" as="geometry" />
        </mxCell>
        <mxCell id="41tTYhLOXa8K0barruc2-95" value="" style="shape=line;strokeColor=#ffffff;direction=south;" parent="41tTYhLOXa8K0barruc2-88" vertex="1">
          <mxGeometry x="59.997567567567614" y="5" width="17.837837837837842" height="20" as="geometry" />
        </mxCell>
        <mxCell id="41tTYhLOXa8K0barruc2-111" value="" style="group" parent="1" vertex="1" connectable="0">
          <mxGeometry x="425" y="600" width="135" height="100" as="geometry" />
        </mxCell>
        <mxCell id="41tTYhLOXa8K0barruc2-96" value="" style="strokeWidth=1;html=1;shadow=0;dashed=0;shape=mxgraph.android.rrect;rSize=0;strokeColor=#888888;fillColor=#444444;" parent="41tTYhLOXa8K0barruc2-111" vertex="1">
          <mxGeometry width="75" height="50" as="geometry" />
        </mxCell>
        <mxCell id="41tTYhLOXa8K0barruc2-97" value="Data Irigasi" style="strokeColor=inherit;fillColor=inherit;gradientColor=inherit;strokeWidth=1;html=1;shadow=0;dashed=0;shape=mxgraph.android.rrect;rSize=0;align=left;spacingLeft=10;fontSize=8;fontColor=#ffffff;" parent="41tTYhLOXa8K0barruc2-96" vertex="1">
          <mxGeometry width="75" height="12.5" as="geometry" />
        </mxCell>
        <mxCell id="41tTYhLOXa8K0barruc2-98" value="Kebutuhan Air " style="strokeColor=inherit;fillColor=inherit;gradientColor=inherit;strokeWidth=1;html=1;shadow=0;dashed=0;shape=mxgraph.android.rrect;rSize=0;align=left;spacingLeft=10;fontSize=8;fontColor=#ffffff;" parent="41tTYhLOXa8K0barruc2-96" vertex="1">
          <mxGeometry y="12.5" width="75" height="12.5" as="geometry" />
        </mxCell>
        <mxCell id="41tTYhLOXa8K0barruc2-99" value="&lt;font style=&quot;font-size: 6px&quot;&gt;Parameter Kebutuhan&lt;br&gt;&lt;/font&gt;" style="strokeColor=inherit;fillColor=inherit;gradientColor=inherit;strokeWidth=1;html=1;shadow=0;dashed=0;shape=mxgraph.android.rrect;rSize=0;align=left;spacingLeft=10;fontSize=8;fontColor=#ffffff;" parent="41tTYhLOXa8K0barruc2-96" vertex="1">
          <mxGeometry y="25" width="75" height="12.5" as="geometry" />
        </mxCell>
        <mxCell id="41tTYhLOXa8K0barruc2-100" value="Menu Item 4" style="strokeColor=inherit;fillColor=inherit;gradientColor=inherit;strokeWidth=1;html=1;shadow=0;dashed=0;shape=mxgraph.android.rrect;rSize=0;align=left;spacingLeft=10;fontSize=8;fontColor=#ffffff;" parent="41tTYhLOXa8K0barruc2-96" vertex="1">
          <mxGeometry y="37.5" width="75" height="12.5" as="geometry" />
        </mxCell>
        <mxCell id="41tTYhLOXa8K0barruc2-101" value="" style="strokeWidth=1;html=1;shadow=0;dashed=0;shape=mxgraph.android.rrect;rSize=0;strokeColor=#888888;fillColor=#444444;" parent="41tTYhLOXa8K0barruc2-111" vertex="1">
          <mxGeometry width="135" height="50" as="geometry" />
        </mxCell>
        <mxCell id="41tTYhLOXa8K0barruc2-102" value="Porositas tanah" style="strokeColor=inherit;fillColor=inherit;gradientColor=inherit;strokeWidth=1;html=1;shadow=0;dashed=0;shape=mxgraph.android.rrect;rSize=0;align=left;spacingLeft=10;fontSize=8;fontColor=#ffffff;" parent="41tTYhLOXa8K0barruc2-101" vertex="1">
          <mxGeometry width="135" height="12.5" as="geometry" />
        </mxCell>
        <mxCell id="41tTYhLOXa8K0barruc2-103" value="Evapotranspirasi" style="strokeColor=inherit;fillColor=inherit;gradientColor=inherit;strokeWidth=1;html=1;shadow=0;dashed=0;shape=mxgraph.android.rrect;rSize=0;align=left;spacingLeft=10;fontSize=8;fontColor=#ffffff;" parent="41tTYhLOXa8K0barruc2-101" vertex="1">
          <mxGeometry y="12.5" width="135" height="12.5" as="geometry" />
        </mxCell>
        <mxCell id="41tTYhLOXa8K0barruc2-104" value="Total kehilangan air&lt;font style=&quot;font-size: 6px&quot;&gt;&lt;br&gt;&lt;/font&gt;" style="strokeColor=inherit;fillColor=inherit;gradientColor=inherit;strokeWidth=1;html=1;shadow=0;dashed=0;shape=mxgraph.android.rrect;rSize=0;align=left;spacingLeft=10;fontSize=8;fontColor=#ffffff;" parent="41tTYhLOXa8K0barruc2-101" vertex="1">
          <mxGeometry y="25" width="135" height="12.5" as="geometry" />
        </mxCell>
        <mxCell id="41tTYhLOXa8K0barruc2-105" value="Jangka waktu pengolahan" style="strokeColor=inherit;fillColor=inherit;gradientColor=inherit;strokeWidth=1;html=1;shadow=0;dashed=0;shape=mxgraph.android.rrect;rSize=0;align=left;spacingLeft=10;fontSize=8;fontColor=#ffffff;" parent="41tTYhLOXa8K0barruc2-101" vertex="1">
          <mxGeometry y="37.5" width="135" height="12.5" as="geometry" />
        </mxCell>
        <mxCell id="41tTYhLOXa8K0barruc2-106" value="" style="strokeWidth=1;html=1;shadow=0;dashed=0;shape=mxgraph.android.rrect;rSize=0;strokeColor=#888888;fillColor=#444444;" parent="41tTYhLOXa8K0barruc2-111" vertex="1">
          <mxGeometry y="50" width="135" height="50" as="geometry" />
        </mxCell>
        <mxCell id="41tTYhLOXa8K0barruc2-107" value="Tinggi penjenuhan air" style="strokeColor=inherit;fillColor=inherit;gradientColor=inherit;strokeWidth=1;html=1;shadow=0;dashed=0;shape=mxgraph.android.rrect;rSize=0;align=left;spacingLeft=10;fontSize=8;fontColor=#ffffff;" parent="41tTYhLOXa8K0barruc2-106" vertex="1">
          <mxGeometry width="135" height="12.5" as="geometry" />
        </mxCell>
        <mxCell id="41tTYhLOXa8K0barruc2-108" value="Konstanta" style="strokeColor=inherit;fillColor=inherit;gradientColor=inherit;strokeWidth=1;html=1;shadow=0;dashed=0;shape=mxgraph.android.rrect;rSize=0;align=left;spacingLeft=10;fontSize=8;fontColor=#ffffff;" parent="41tTYhLOXa8K0barruc2-106" vertex="1">
          <mxGeometry y="12.5" width="135" height="12.5" as="geometry" />
        </mxCell>
        <mxCell id="41tTYhLOXa8K0barruc2-109" value="Pergantian lapisan air&lt;font style=&quot;font-size: 6px&quot;&gt;&lt;br&gt;&lt;/font&gt;" style="strokeColor=inherit;fillColor=inherit;gradientColor=inherit;strokeWidth=1;html=1;shadow=0;dashed=0;shape=mxgraph.android.rrect;rSize=0;align=left;spacingLeft=10;fontSize=8;fontColor=#ffffff;" parent="41tTYhLOXa8K0barruc2-106" vertex="1">
          <mxGeometry y="25" width="135" height="12.5" as="geometry" />
        </mxCell>
        <mxCell id="41tTYhLOXa8K0barruc2-110" value="Efisiensi Irigasi" style="strokeColor=inherit;fillColor=inherit;gradientColor=inherit;strokeWidth=1;html=1;shadow=0;dashed=0;shape=mxgraph.android.rrect;rSize=0;align=left;spacingLeft=10;fontSize=8;fontColor=#ffffff;" parent="41tTYhLOXa8K0barruc2-106" vertex="1">
          <mxGeometry y="37.5" width="135" height="12.5" as="geometry" />
        </mxCell>
      </root>
    </mxGraphModel>
  </diagram>
</mxfile>
